<svg width="166" height="43" viewBox="0 0 166 43" fill="none" xmlns="http://www.w3.org/2000/svg">
<path d="M78.5 0C72.6592 0 71.9246 0.0179167 69.6313 0.125417C67.3558 0.232917 65.7971 0.59125 64.4175 1.12875C63.0021 1.68417 61.8017 2.41875 60.6012 3.60125C59.4008 4.78375 58.6842 6.00208 58.1287 7.4175C57.5912 8.79708 57.2329 10.3558 57.1254 12.6313C57.0179 14.9246 57 15.6592 57 21.5C57 27.3408 57.0179 28.0754 57.1254 30.3688C57.2329 32.6621 57.5912 34.2208 58.1287 35.5825C58.6842 36.9979 59.4187 38.1983 60.6012 39.3988C61.8017 40.5992 63.0021 41.3338 64.4175 41.8713C65.7971 42.4088 67.3558 42.7671 69.6313 42.8746C71.9246 42.9821 72.6592 43 78.5 43C84.3408 43 85.0754 42.9821 87.3688 42.8746C89.6621 42.7671 91.2208 42.4088 92.5825 41.8713C93.9979 41.3158 95.1983 40.5812 96.3988 39.3988C97.5992 38.1983 98.3338 36.9979 98.8713 35.5825C99.4088 34.2208 99.7671 32.6442 99.8746 30.3688C99.9821 28.0754 100 27.3408 100 21.5C100 15.6592 99.9821 14.9246 99.8746 12.6313C99.7671 10.3379 99.4088 8.77917 98.8713 7.4175C98.3158 6.00208 97.5812 4.80167 96.3988 3.60125C95.1983 2.40083 93.9979 1.66625 92.5825 1.12875C91.2208 0.59125 89.6442 0.232917 87.3688 0.125417C85.0754 0.0179167 84.3408 0 78.5 0ZM78.5 3.87C84.2333 3.87 84.9321 3.90583 87.1896 3.99542C89.2858 4.10292 90.4325 4.44333 91.185 4.73C92.1883 5.12417 92.905 5.59 93.6575 6.3425C94.41 7.095 94.8758 7.81167 95.27 8.815C95.5567 9.5675 95.915 10.7142 96.0046 12.8104C96.1121 15.0858 96.13 15.7667 96.13 21.5C96.13 27.2333 96.1121 27.9321 96.0046 30.1896C95.8971 32.2858 95.5387 33.4325 95.2521 34.185C94.8579 35.1883 94.3921 35.905 93.6396 36.6575C92.8871 37.41 92.1704 37.8758 91.1671 38.27C90.4146 38.5567 89.25 38.915 87.1537 39.0046C84.8783 39.1121 84.1975 39.13 78.4463 39.13C72.695 39.13 72.0142 39.1121 69.7387 39.0046C67.6425 38.8971 66.4779 38.5387 65.7254 38.2521C64.7042 37.8579 64.0054 37.3921 63.2529 36.6396C62.5004 35.8871 62.0167 35.1704 61.6404 34.1671C61.3537 33.3967 61.0133 32.25 60.9058 30.1537C60.8163 27.8962 60.7983 27.1975 60.7983 21.4821C60.7983 15.7487 60.8342 15.05 60.9058 12.7746C61.0133 10.6604 61.3537 9.51375 61.6583 8.76125C62.0346 7.74 62.5183 7.04125 63.2708 6.28875C64.0233 5.53625 64.7221 5.0525 65.7433 4.67625C66.4958 4.38958 67.6246 4.03125 69.7208 3.92375C71.9962 3.83417 72.6771 3.81625 78.4283 3.81625C78.4104 3.81625 78.5 3.87 78.5 3.87ZM78.5 10.4633C72.4083 10.4633 67.4633 15.4083 67.4633 21.5C67.4633 27.5917 72.4083 32.5367 78.5 32.5367C84.5917 32.5367 89.5367 27.5917 89.5367 21.5C89.5367 15.4083 84.5917 10.4633 78.5 10.4633ZM78.5 28.6667C74.5404 28.6667 71.3333 25.4596 71.3333 21.5C71.3333 17.5404 74.5404 14.3333 78.5 14.3333C82.4596 14.3333 85.6667 17.5404 85.6667 21.5C85.6667 25.4596 82.4596 28.6667 78.5 28.6667ZM92.5646 10.0333C92.5646 11.4667 91.4 12.6133 89.9846 12.6133C88.5512 12.6133 87.4046 11.4487 87.4046 10.0333C87.4046 8.61792 88.5692 7.45333 89.9846 7.45333C91.4 7.45333 92.5646 8.6 92.5646 10.0333Z" fill="white"/>
<g clip-path="url(#clip0)">
<path d="M140.992 8.37001C140.812 8.05288 140.669 7.78253 140.505 7.52779C139.58 6.10329 138.464 4.82957 137.201 3.68581C136.471 3.02555 135.704 2.37569 134.88 1.84021C133.399 0.878411 131.75 0.301334 129.979 0.0881798C128.398 -0.0989802 126.838 -0.000201261 125.305 0.436505C123.83 0.852416 122.481 1.51787 121.255 2.43808C118.543 4.47604 116.967 7.20026 116.264 10.4444C115.936 11.9416 115.931 13.4493 116.137 14.9726C116.481 17.4681 117.385 19.766 118.617 21.9495C119.145 22.8853 119.7 23.8159 120.33 24.6841C121.207 25.8955 122.154 27.0652 123.095 28.2246C123.613 28.8588 124.173 29.4619 124.75 30.0494C125.527 30.8448 126.32 31.6142 127.124 32.3837C127.917 33.1375 128.704 33.9017 129.534 34.6192C130.629 35.5654 131.744 36.496 132.881 37.385C134.065 38.3156 135.276 39.2098 136.503 40.0884C137.444 40.7591 138.417 41.3829 139.379 42.0224C139.855 42.3395 140.325 42.6619 140.812 42.9634C140.902 43.0206 141.087 43.0206 141.171 42.9686C143.503 41.4921 145.792 39.9585 147.955 38.248C149.451 37.0679 150.942 35.8825 152.396 34.6556C153.247 33.9381 154.045 33.1531 154.849 32.3889C155.621 31.6558 156.393 30.9176 157.133 30.1482C158.576 28.6353 159.962 27.0704 161.162 25.3652C161.807 24.4502 162.436 23.5196 163.012 22.563C164.012 20.9097 164.81 19.1629 165.349 17.3121C165.777 15.8408 166.026 14.3383 165.984 12.8151C165.904 10.1532 165.122 7.69415 163.61 5.46903C162.568 3.90416 161.241 2.63044 159.607 1.68424C157.931 0.712046 156.134 0.13497 154.172 0.0257932C152.079 -0.0885824 150.106 0.311732 148.235 1.20594C146.823 1.8766 145.607 2.82279 144.523 3.93016C143.921 4.54883 143.297 5.1519 142.757 5.82255C142.171 6.5608 141.668 7.36662 141.134 8.14646C141.097 8.19325 141.066 8.25043 140.992 8.37001Z" fill="white"/>
</g>
<path d="M19.4255 43C17.0026 43 14.3933 43 11.9704 43C4.51537 42.813 -0.51679 37.2043 0.0423394 29.7261C0.415092 25.0522 0.601468 20.1913 0.974221 15.5174C0.974221 11.4043 3.02436 9.34783 6.93826 8.97391C7.49739 8.97391 8.2429 8.97391 8.80203 8.97391C9.54753 8.97391 10.1067 8.78696 10.293 7.85217C10.4794 7.2913 10.6658 6.73043 10.8522 5.98261C12.3432 2.24348 15.698 0 19.4255 0C23.3394 0 26.6942 2.43043 27.9988 5.98261C28.1852 6.54348 28.3715 7.10435 28.5579 7.85217C28.7443 8.78696 29.3034 8.97391 30.0489 8.97391C31.1672 8.97391 32.0991 8.97391 33.2173 9.16087C36.013 9.72174 37.8767 11.7783 38.0631 14.5826C38.4359 20.0043 38.995 25.4261 38.995 30.6609C39.1814 37.5783 34.1492 42.813 27.2533 43C24.644 43 22.0347 43 19.4255 43ZM19.6119 25.613C22.0347 25.8 24.0849 24.6783 25.9486 22.6217C27.2533 21.1261 27.9988 19.2565 27.8124 17.2C27.8124 16.2652 27.2533 15.7043 26.3214 15.5174C25.3895 15.3304 24.644 15.8913 24.4576 16.8261C24.0849 17.5739 24.0849 18.3217 23.8985 18.8826C23.153 20.7522 21.662 21.8739 19.6119 21.8739C17.5617 21.8739 15.8843 20.7522 15.3252 18.8826C14.9524 18.3217 14.9524 17.7609 14.7661 17.2C14.5797 16.2652 14.0206 15.5174 12.9023 15.5174C11.4113 15.7043 11.2249 16.6391 11.2249 17.7609C11.2249 22.0609 14.9524 25.613 19.6119 25.613ZM15.8843 8.6C18.3072 8.6 20.5437 8.6 22.9666 8.6C22.4075 6.54348 21.1029 5.6087 19.2391 5.6087C17.7481 5.6087 16.4435 6.73043 15.8843 8.6Z" fill="white"/>
<defs>
<clipPath id="clip0">
<rect width="50" height="43" fill="white" transform="matrix(-1 0 0 1 166 0)"/>
</clipPath>
</defs>
</svg>
