<svg width="179" height="43" viewBox="0 0 179 43" fill="none" xmlns="http://www.w3.org/2000/svg">
<path d="M87.5 0C81.6592 0 80.9246 0.0179167 78.6313 0.125417C76.3558 0.232917 74.7971 0.59125 73.4175 1.12875C72.0021 1.68417 70.8017 2.41875 69.6012 3.60125C68.4008 4.78375 67.6842 6.00208 67.1287 7.4175C66.5912 8.79708 66.2329 10.3558 66.1254 12.6313C66.0179 14.9246 66 15.6592 66 21.5C66 27.3408 66.0179 28.0754 66.1254 30.3688C66.2329 32.6621 66.5912 34.2208 67.1287 35.5825C67.6842 36.9979 68.4187 38.1983 69.6012 39.3988C70.8017 40.5992 72.0021 41.3338 73.4175 41.8713C74.7971 42.4088 76.3558 42.7671 78.6313 42.8746C80.9246 42.9821 81.6592 43 87.5 43C93.3408 43 94.0754 42.9821 96.3688 42.8746C98.6621 42.7671 100.221 42.4088 101.583 41.8713C102.998 41.3158 104.198 40.5812 105.399 39.3988C106.599 38.1983 107.334 36.9979 107.871 35.5825C108.409 34.2208 108.767 32.6442 108.875 30.3688C108.982 28.0754 109 27.3408 109 21.5C109 15.6592 108.982 14.9246 108.875 12.6313C108.767 10.3379 108.409 8.77917 107.871 7.4175C107.316 6.00208 106.581 4.80167 105.399 3.60125C104.198 2.40083 102.998 1.66625 101.583 1.12875C100.221 0.59125 98.6442 0.232917 96.3688 0.125417C94.0754 0.0179167 93.3408 0 87.5 0ZM87.5 3.87C93.2333 3.87 93.9321 3.90583 96.1896 3.99542C98.2858 4.10292 99.4325 4.44333 100.185 4.73C101.188 5.12417 101.905 5.59 102.657 6.3425C103.41 7.095 103.876 7.81167 104.27 8.815C104.557 9.5675 104.915 10.7142 105.005 12.8104C105.112 15.0858 105.13 15.7667 105.13 21.5C105.13 27.2333 105.112 27.9321 105.005 30.1896C104.897 32.2858 104.539 33.4325 104.252 34.185C103.858 35.1883 103.392 35.905 102.64 36.6575C101.887 37.41 101.17 37.8758 100.167 38.27C99.4146 38.5567 98.25 38.915 96.1537 39.0046C93.8783 39.1121 93.1975 39.13 87.4463 39.13C81.695 39.13 81.0142 39.1121 78.7387 39.0046C76.6425 38.8971 75.4779 38.5387 74.7254 38.2521C73.7042 37.8579 73.0054 37.3921 72.2529 36.6396C71.5004 35.8871 71.0167 35.1704 70.6404 34.1671C70.3537 33.3967 70.0133 32.25 69.9058 30.1537C69.8163 27.8962 69.7983 27.1975 69.7983 21.4821C69.7983 15.7487 69.8342 15.05 69.9058 12.7746C70.0133 10.6604 70.3537 9.51375 70.6583 8.76125C71.0346 7.74 71.5183 7.04125 72.2708 6.28875C73.0233 5.53625 73.7221 5.0525 74.7433 4.67625C75.4958 4.38958 76.6246 4.03125 78.7208 3.92375C80.9962 3.83417 81.6771 3.81625 87.4283 3.81625C87.4104 3.81625 87.5 3.87 87.5 3.87ZM87.5 10.4633C81.4083 10.4633 76.4633 15.4083 76.4633 21.5C76.4633 27.5917 81.4083 32.5367 87.5 32.5367C93.5917 32.5367 98.5367 27.5917 98.5367 21.5C98.5367 15.4083 93.5917 10.4633 87.5 10.4633ZM87.5 28.6667C83.5404 28.6667 80.3333 25.4596 80.3333 21.5C80.3333 17.5404 83.5404 14.3333 87.5 14.3333C91.4596 14.3333 94.6667 17.5404 94.6667 21.5C94.6667 25.4596 91.4596 28.6667 87.5 28.6667ZM101.565 10.0333C101.565 11.4667 100.4 12.6133 98.9846 12.6133C97.5512 12.6133 96.4046 11.4487 96.4046 10.0333C96.4046 8.61792 97.5692 7.45333 98.9846 7.45333C100.4 7.45333 101.565 8.6 101.565 10.0333Z" fill="white"/>
<g clip-path="url(#clip0)">
<path d="M153.626 -0.00141025C160.003 -0.00141025 166.374 -0.00748799 172.751 0.00466749C174.774 0.00466749 176.567 0.569897 177.919 2.15619C178.738 3.11039 178.98 4.25908 178.98 5.44424C178.998 14.0625 178.998 22.6746 178.98 31.2929C178.974 33.8577 176.989 35.9059 174.172 36.2888C173.415 36.3921 172.634 36.3739 171.864 36.3739C168.57 36.3799 165.276 36.386 161.982 36.3678C161.331 36.3617 160.828 36.544 160.344 36.9938C158.26 38.9265 156.132 40.8167 154.035 42.7373C153.694 43.0472 153.421 43.0958 153.086 42.7798C152.286 42.0262 151.485 41.2725 150.667 40.531C149.358 39.3459 148.073 38.1364 146.715 37.012C146.312 36.6777 145.697 36.4103 145.176 36.4042C141.38 36.3556 137.577 36.3799 133.78 36.3739C130.951 36.3678 128.662 34.5931 128.03 31.9128C127.974 31.6636 128.005 31.3901 128.005 31.1348C128.011 22.6746 128.036 14.2144 127.998 5.75421C127.986 2.49046 130.368 0.442265 133.147 0.0776004C133.675 0.0107452 134.208 -0.00141025 134.736 -0.00141025C141.032 -0.00141025 147.329 -0.00141025 153.626 -0.00141025ZM153.371 10.738C153.148 10.4766 152.968 10.2517 152.782 10.039C149.879 6.72057 144.488 6.80566 141.696 10.2092C139.19 13.2602 139.413 17.2958 142.316 19.9944C145.629 23.0758 149.004 26.0964 152.335 29.1596C152.726 29.5182 152.98 29.5182 153.396 29.1717C156.895 26.2605 160.425 23.3797 163.93 20.4806C165.673 19.0341 166.678 17.2168 166.74 14.9316C166.883 9.85061 161.56 6.20396 156.771 8.10022C155.381 8.64721 154.289 9.54672 153.371 10.738Z" fill="white"/>
</g>
<g clip-path="url(#clip1)">
<path d="M25.0084 8.37001C25.1882 8.05288 25.331 7.78253 25.4949 7.52779C26.4201 6.10329 27.5357 4.82957 28.7993 3.68581C29.5289 3.02555 30.2955 2.37569 31.1203 1.84021C32.6007 0.878411 34.2503 0.301334 36.0215 0.0881798C37.6023 -0.0989802 39.162 -0.000201261 40.6952 0.436505C42.1703 0.852416 43.5185 1.51787 44.7452 2.43808C47.4574 4.47604 49.033 7.20026 49.7362 10.4444C50.064 11.9416 50.0693 13.4493 49.8631 14.9726C49.5194 17.4681 48.6153 19.766 47.3834 21.9495C46.8547 22.8853 46.2996 23.8159 45.6704 24.6841C44.7927 25.8955 43.8464 27.0652 42.9052 28.2246C42.3871 28.8588 41.8267 29.4619 41.2504 30.0494C40.4732 30.8448 39.6801 31.6142 38.8765 32.3837C38.0834 33.1375 37.2956 33.9017 36.4656 34.6192C35.3711 35.5654 34.2556 36.496 33.1188 37.385C31.9345 38.3156 30.7238 39.2098 29.4972 40.0884C28.5561 40.7591 27.5833 41.3829 26.621 42.0224C26.1452 42.3395 25.6746 42.6619 25.1882 42.9634C25.0983 43.0206 24.9133 43.0206 24.8287 42.9686C22.4971 41.4921 20.2078 39.9585 18.0454 38.248C16.5491 37.0679 15.0581 35.8825 13.6042 34.6556C12.753 33.9381 11.9546 33.1531 11.151 32.3889C10.3791 31.6558 9.60716 30.9176 8.86696 30.1482C7.42359 28.6353 6.03837 27.0704 4.8382 25.3652C4.19318 24.4502 3.56401 23.5196 2.98772 22.563C1.98846 20.9097 1.19011 19.1629 0.650827 17.3121C0.222573 15.8408 -0.0259202 14.3383 0.0163766 12.8151C0.0956829 10.1532 0.878172 7.69415 2.39028 5.46903C3.43184 3.90416 4.7589 2.63044 6.39261 1.68424C8.06861 0.712046 9.86622 0.13497 11.8277 0.0257932C13.9214 -0.0885824 15.8935 0.311732 17.7651 1.20594C19.1768 1.8766 20.3928 2.82279 21.4767 3.93016C22.0794 4.54883 22.7033 5.1519 23.2426 5.82255C23.8294 6.5608 24.3317 7.36662 24.8657 8.14646C24.9027 8.19325 24.9344 8.25043 25.0084 8.37001Z" fill="white"/>
</g>
<defs>
<clipPath id="clip0">
<rect width="51" height="43" fill="white" transform="translate(128)"/>
</clipPath>
<clipPath id="clip1">
<rect width="50" height="43" fill="white"/>
</clipPath>
</defs>
</svg>
