<?xml version="1.0" encoding="utf-8"?>
<!-- Generator: Adobe Illustrator 24.3.0, SVG Export Plug-In . SVG Version: 6.00 Build 0)  -->
<svg version="1.1" id="Layer_1" xmlns="http://www.w3.org/2000/svg" xmlns:xlink="http://www.w3.org/1999/xlink" x="0px" y="0px"
	 viewBox="0 0 213.4 155.7" style="enable-background:new 0 0 213.4 155.7;" xml:space="preserve">
<style type="text/css">
	.st0{fill:none;stroke:#FFFFFF;stroke-width:0.484;stroke-miterlimit:10;}
	.st1{fill:none;}
	.st2{fill:#8EB7CE;}
	.st3{fill:none;stroke:#FFFFFF;stroke-width:0.275;stroke-linecap:round;stroke-linejoin:round;}
	.st4{fill:none;stroke:#FFFFFF;stroke-width:0.249;stroke-linecap:round;stroke-linejoin:round;}
	.st5{fill:#FFFFFF;}
</style>
<g id="Layer_2_1_">
	<g id="Layer_1-2">
		<g>
			<path class="st0" d="M62.6,126.5l-2.8-0.2 M62.5,127.9l-2.8-0.3 M62.3,129.4l-2.7-0.4 M62,130.8l-2.7-0.6 M61.7,132.3l-2.7-0.7
				 M61.3,133.7l-2.6-0.8 M60.8,135l-2.6-0.9 M60.3,136.4l-2.6-1.1 M59.7,137.7l-2.5-1.2 M59.1,139l-2.4-1.3 M58.3,140.3l-2.4-1.4
				 M57.6,141.6l-2.3-1.5 M56.7,142.8l-2.3-1.6 M55.8,143.9l-2.2-1.7 M54.9,145l-2.1-1.8 M53.9,146.1l-2-1.9 M52.9,147.1l-1.9-2
				 M51.8,148.1L50,146 M50.7,149l-1.7-2.2 M49.5,149.9l-1.6-2.3 M48.3,150.7l-1.5-2.3 M47,151.5l-1.4-2.4 M45.7,152.2l-1.3-2.5
				 M44.4,152.8l-1.2-2.5 M43.1,153.4l-1-2.6 M41.7,153.9l-0.9-2.6 M40.3,154.4l-0.8-2.7 M38.9,154.8l-0.7-2.7 M37.5,155.1l-0.5-2.7
				 M36.1,155.3l-0.4-2.7 M34.6,155.5l-0.3-2.8 M33.2,155.6l-0.2-2.8 M31.7,155.7l0-2.8 M30.2,155.7l0.1-2.8 M28.8,155.6l0.2-2.8
				 M27.3,155.4l0.4-2.8 M25.9,155.2l0.5-2.7 M24.4,154.9l0.6-2.7 M23,154.6l0.7-2.7 M21.6,154.1l0.9-2.6 M20.2,153.7l1-2.6
				 M18.9,153.1l1.1-2.6 M17.6,152.5l1.2-2.5 M16.3,151.8l1.3-2.4 M15,151.1l1.5-2.4 M13.8,150.3l1.6-2.3 M12.6,149.4l1.7-2.2
				 M11.4,148.6l1.8-2.2 M10.3,147.6l1.9-2.1 M9.3,146.6l2-2 M8.3,145.5l2-1.9 M7.3,144.4l2.1-1.8 M6.4,143.3l2.2-1.7 M5.5,142.1
				l2.3-1.6 M4.7,140.9l2.4-1.5 M4,139.6l2.4-1.4 M3.3,138.3l2.5-1.3 M2.7,137l2.5-1.1 M2.1,135.7l2.6-1 M1.6,134.3l2.6-0.9
				 M1.2,132.9l2.7-0.7 M0.8,131.5l2.7-0.6 M0.5,130.1l2.7-0.5 M0.3,128.6l2.8-0.4 M0.1,127.1l2.8-0.2 M0,125.7l2.8-0.1 M0,124.2
				l2.8,0 M0,122.8l2.8,0.1 M0.1,121.3l2.8,0.3 M0.3,119.9l2.7,0.4 M0.6,118.4l2.7,0.5 M0.9,117l2.7,0.6 M1.2,115.6l2.7,0.8
				 M1.7,114.2l2.6,0.9 M2.2,112.8l2.6,1 M2.8,111.5l2.5,1.2 M3.4,110.2l2.5,1.2 M4.1,108.9l2.4,1.4 M4.8,107.6l2.3,1.5 M5.6,106.4
				l2.3,1.6 M6.5,105.2l2.2,1.7 M7.4,104.1l2.1,1.8 M8.4,103l2,1.9 M9.4,101.9l2,2 M10.5,100.9l1.9,2.1 M11.6,100l1.8,2.2
				 M12.8,99.1l1.6,2.2 M14,98.3l1.5,2.3 M15.2,97.5l1.4,2.4 M16.5,96.8l1.3,2.4 M17.8,96.1l1.2,2.5 M19.1,95.5l1.1,2.5 M20.4,94.9
				l1,2.6 M21.8,94.5l0.8,2.6 M23.2,94.1l0.7,2.7 M24.7,93.7l0.6,2.7 M26.1,93.4l0.5,2.7 M27.5,93.2l0.3,2.8 M29,93.1l0.2,2.8
				 M30.5,93l0.1,2.8 M31.9,93l0,2.8 M33.4,93.1l-0.2,2.8 M34.8,93.2l-0.3,2.8 M36.3,93.4l-0.4,2.7 M37.7,93.6l-0.6,2.7 M39.1,94
				l-0.7,2.7 M40.5,94.4L39.7,97 M41.9,94.8L41,97.4 M43.3,95.3l-1.1,2.6 M44.6,95.9l-1.2,2.5 M45.9,96.6L44.6,99 M47.2,97.3
				l-1.4,2.4 M48.5,98.1l-1.5,2.3 M49.7,98.9l-1.6,2.2 M50.8,99.8l-1.7,2.2 M51.9,100.7l-1.8,2.1 M53,101.7l-1.9,2 M54.1,102.7
				l-2,1.9 M55,103.8l-2.1,1.8 M56,104.9l-2.2,1.7 M56.9,106.1l-2.3,1.6 M57.7,107.3l-2.3,1.5 M58.4,108.5l-2.4,1.4 M59.2,109.8
				l-2.5,1.3 M59.8,111.1l-2.5,1.2 M60.4,112.5l-2.6,1 M60.9,113.9l-2.6,0.9 M61.4,115.2l-2.7,0.8 M61.8,116.6l-2.7,0.7 M62.1,118.1
				l-2.7,0.6 M62.3,119.5l-2.7,0.4 M62.5,121l-2.8,0.3 M62.7,122.4l-2.8,0.2 M62.7,123.9l-2.8,0 M62.7,125.3l-2.8-0.1"/>
			<path class="st1" d="M26.5,125.4c0-0.1,0.3,0.2,0.3,0.1l0.7,1c0,0,1.1,0.6,1.3,0.5c0.2-0.1,0.4-0.4,0.5-0.4
				c0.1,0,0.3-0.2,0.4-0.2c0.2,0,0.3-0.4,0.3-0.4s0.5,0.1,0.5-0.2c0-0.3,0-1.1,0-1.1c0.3-0.2,0.5-0.5,0.5-0.8c0.1,0,0.8-0.1,0.8-0.1
				c0.6-0.2,0.5-0.8,0.4-1.1c-0.1-0.3-0.7-0.7-0.7-0.7c0.2-0.2,0.2-0.5,0-0.7c0,0,0,0,0,0c-0.1-0.3-0.4-0.5-0.6-0.5l-0.3,0l-1.4-0.8
				l-2.4-0.1l-2.2,2.9l-0.7-0.3v-2l0.9-2.5l1-1l1,0.8l3.3,0.1c0,0,1.2,0.1,1.4-0.2c0.3-0.5,0.7-1.1,0.7-1.1l0,0.1
				c0.1,0,0.1,0.1,0.2,0.1c0.1,0,0.3,0,0.4,0.1c0-0.1,0.1-0.2,0.4-0.5c0.4-0.3,0.1-0.6,0.2-0.9c0-0.2,0-0.4-0.2-0.6l2.6,0.8l0,0
				c-0.2,0.3-0.2,0.6-0.3,0.7c-0.2,0.1,0.1,0.6,0,0.8c0,0.2,0,0.3,0.2,0.4l0.1,0c0,0.3,0,0.7,0.1,1c0.1,0.4,0.2,0.7,0.4,1h0l-0.1,0
				c-0.1,0.2-0.2,0.4-0.3,0.6c-0.2,0.1-0.9,1.1-0.8,1.7c0.1,0.6,0.5,1.7,0.5,1.7l0.3,0l0,0.1c-0.1,0.3-0.2,0.6-0.4,0.9
				c-0.5,0.4-0.9,1-1,1.7l0,0c-0.4-0.2-0.8-0.2-1.1,0.2c-0.4,0.4-0.5,0.5-0.5,0.5l0,0l0,0l0,0l0,0c-0.4,0.6-0.4,0.5-0.5,0.7
				c-0.1,0.4-0.2,0.7-0.2,1.1c0,0.1,0,0.4-0.1,0.4c-0.1,0-0.4,0.3-0.5,0.2c0-0.1-0.3-0.5-0.5-0.5c-0.1,0-0.4-0.1-0.3,0.1
				c0.1,0.2-0.6,0.1-0.1,0.5l0.4,0.4c0.2,0.2,0.4,0.3,0.7,0.4c0.3,0.1,0.7,0,0.9-0.3l0.1,0c0,0.2-0.1,0.4-0.1,0.6
				c-0.1,0.2-0.2,0.5-0.2,0.8c0,0,0.2,0.5,0.5,0.2l0.3-0.4l0.3-0.5l0,0c-0.2,0.8-0.5,1.5-0.6,1.8c-0.3,0.5-0.6,1-0.7,1.6
				c-0.1,0.4,0,0.8,0.1,1.2h0l0,0c-0.9-0.5-1.5,0.2-2.4,0.5c-0.6,0.2-1.3,0.3-1.9,0.3l0-0.1c-0.8-0.1-1.8-1.2-1.8-1.2l-1.6-1.6
				c0.4-2.2,1.4-2.3,1.4-2.3l0,0c0.4-1.2,0.7-2.4,0.9-3.7c-0.1-0.3-0.1-0.5-0.1-0.8"/>
			<path class="st1" d="M27.2,119.8c-0.2,0.1-0.4,0.1-0.5,0.3c-0.3,0.2-0.6,0.5-0.9,0.7c-0.4,0.3-0.8,0.7-1.2,1.1
				c-0.1,0.2-0.1,0.4-0.1,0.6c0.1,0.1,0.5,1.3,0.5,1.4c0,0.1,0.4,0.2,0.5,0.4c0.1,0.2,0.1,0.4,0.7,0.8l-0.1,1l0.3-0.3
				c0,0,1.4,0.1,1.6-0.2c0.3-0.4,0.6-0.7,1-0.9c0.4-0.2,1.2-0.7,1.5-0.9c0.3-0.1,0.8,0.3,1,0.3s1.4-0.3,0.9-1
				c-0.5-0.7-0.8-1.1-0.8-1.3c0.1-0.2-0.2-0.8-1-0.9c-0.4,0-0.9-0.3-1.1-0.7L27.2,119.8z"/>
			<path class="st1" d="M41.5,114.7c0,0-1.3-0.5-1.7-0.6c-0.8,0-1.6,0.2-2.4,0.5c-0.5,0.3-0.8,0.5-0.8,0.7c-0.1,0.2-0.8,0.4-0.8,0.6
				c-0.1,0.3-0.2,0.6-0.3,0.9c0,0.3,0,0.7,0.1,1c0.1,0.1,0.1,0.8,0.2,1c0.1,0.2,0.4,1.1,0.8,1.4c0.5,0.3,1.1,0.5,1.2,0.7
				s0.6,1.2,0.8,1.1c0.2-0.1,0.4-0.4,0.7-0.3c0.5,0.3,1,0.2,1.5-0.1c0.5-0.4,0.9-1.4,1.5-1.7c0.6-0.3,1.1-0.8,1.4-1.4
				c0.4-0.8,0.5-1.7,0.4-2.6c-0.2-0.5-0.6-0.9-1.1-1C42.8,114.9,41.5,114.7,41.5,114.7"/>
			<path class="st1" d="M42.4,133.5c0.5-5.2,2.5-10.1,5.7-14.1l0,0c0.7,0.2,1.3,0,1.9-0.4l0,0c-7-1.9-2.4-6.5-1.7-7.1l0-0.1
				c0.5,0.2,1.1-0.2,2.9,0.8c0.1,0.1,1-0.5,1.3-0.5c0.5,0,1.9,1.3,2,1.6c0.1,0.4,0.1,0.8,0,1.2c-0.2,0.4-0.6,0.7-0.5,0.9
				c0.6,1.3,1,2.7,1.1,4.2c0.2,1.2,0.3,2.4,0.4,3.6c0.1,1.4-0.1,2.9,0,4c0.1,1.9-1.4,5.3-1.4,7.3c0,0.6,0.3,3.2,1.2,3.5
				c0,0-3,0.3-4.3,0.3c-0.5,0-0.6,0-1.2,0c-1.5,0-3-0.1-4.4-0.3l-0.1,0c-0.2-0.5-0.2-1.1,0-1.7c0.3-0.6,3.7-5.3,3.5-8.7l0,0h0
				c-0.2,0.1-0.3,0.3-0.5,0.5c-1.3,1.3-2.6,2.5-4.1,3.6c-0.5,0.4-0.9,0.7-1.1,0.9C42.8,133,42.6,133.3,42.4,133.5"/>
			<path class="st1" d="M42.3,139.4c0.1-0.2,0.2-0.4,0.3-0.7c0.2-0.4,0.3-0.9,0.3-1.4c0.1-0.6,0.3-1.2,0.6-1.8
				c0.3-1.2,0.5-2.4,0.6-3.6l-0.1-0.1c1.5-1.1,2.8-2.3,4.1-3.6c0.1-0.2,0.3-0.3,0.5-0.5l0,0c0.2,3.3-3.2,8.1-3.5,8.7
				c-0.2,0.5-0.1,1.1,0,1.7c0,0.2,0.1,0.3,0.1,0.3c0.3,0.4,0.5,0.8,0.7,1.2c0,0.3-0.4,0.6-0.5,0.7c-0.1,0.1-0.5,0.2-0.6,0.3
				c-0.2,0.1-0.4,0.1-0.7,0c-0.2,0-0.5-0.1-0.7-0.2c-0.3,0.1-0.5,0.1-0.8,0.1c-0.3,0-0.3-0.4-0.4-0.8
				C42.2,139.7,42.2,139.6,42.3,139.4"/>
			<path class="st1" d="M39.2,113.9c0.3-0.4,0.7-0.7,1.2-0.9c0.2-0.1,0.4-0.1,0.6-0.2c1.2-0.7,2.5-1.1,3.8-1.2
				c0.7-0.1,1.4-0.1,2.1,0l0,0.2l0,0c-1.8,0.8-2.8,3.7-2.8,3.8l0,0c-0.1-0.5-0.3-0.6-0.8-0.7c-1-0.1-2-0.3-3-0.6l0,0
				c-0.2-0.1-0.4-0.2-0.6-0.3c-0.2,0-0.4,0-0.5,0L39.2,113.9L39.2,113.9z"/>
			<path class="st1" d="M44.1,115.6c0-0.1,0.9-3,2.8-3.8c0.4-0.2,0.8-0.2,1.2-0.2c0.1,0,0.2,0.1,0.2,0.1l0,0.1
				c-0.7,0.7-5.3,5.3,1.7,7.1l0,0c-0.6,0.4-1.2,0.5-1.9,0.4c-2-0.4-3.9-2.9-3.9-2.9l0,0C44.2,116.2,44.2,115.9,44.1,115.6
				L44.1,115.6z"/>
			<path class="st1" d="M37.9,127.9c0.4-0.7,0.6-1.6,0.6-2.4l0.9-2l-0.2-0.1c0.3-0.1,0.6-0.3,0.8-0.5c0.4-0.4,1.4-2.1,1.4-2.1l0,0
				c0.1-0.1,0.2-0.3,0.3-0.5c0,0-0.1-0.2,0.4-0.6l0.1-0.1l0.2-0.1l0.1-0.1c0,0,0.9,0.2,0.8,0.5c0,0.3-0.4,1.8-0.5,2.1
				c-0.1,0.3,0,0.7,0.1,1c0.2,0.6,0.3,1.2,0.3,1.8c-0.1,0.7-0.2,1.5-0.4,2.2c0,0.1-0.1,0.2-0.1,0.3l0,0c0,0-0.6,0-1.6,0.1v0
				C40.1,127.5,39,127.7,37.9,127.9L37.9,127.9z"/>
			<path class="st1" d="M40.8,134.4c-0.8-2,0.7-3.8,0.8-4.2c0.2-0.4,0.4-0.7,0.6-1.1l0.5-1.4l0.1-0.3c0-0.1,0-0.2,0.1-0.3
				c0.2-0.7,0.3-1.5,0.4-2.2c0-0.6-0.1-1.2-0.3-1.8c-0.1-0.3-0.1-0.7-0.1-1c0-0.3,0.4-1.8,0.5-2.1c0-0.3-1.1-0.1-1.1-0.1l-0.1-0.1
				l0.1-0.2l0.2-0.5c0.1,0,0.5-0.3,0.6-0.4c0.6-0.3,1.1-0.9,1.2-1.6c0,0,0-0.2,0-0.5l0,0c0,0,1.9,2.4,3.9,2.9l0,0
				c-3.2,4.1-5.2,9-5.7,14.1c0.2-0.3,0.3-0.5,0.5-0.7c0.2-0.2,0.6-0.5,1.1-0.9l0.1,0.1c-0.1,1.2-0.3,2.4-0.6,3.6
				c-0.3,0.6-0.5,1.2-0.6,1.8c0,0.5-0.2,0.9-0.3,1.4c-0.1,0.2-0.2,0.4-0.3,0.7l0.5-1.5c0,0-0.9,0.4-1.2-0.8L40.8,134.4z"/>
			<polygon class="st1" points="40.9,141.6 32.5,144.1 32.4,143.4 32.4,143.4 32.5,142.8 40.9,140.5 			"/>
			<path class="st1" d="M35.2,122.2c-0.1-0.6,0.6-1.6,0.8-1.7c0.1-0.2,0.2-0.4,0.3-0.6l0.1,0c0.1,0.1,0.2,0.2,0.4,0.3l0.5,0.4
				c0,0,0.3,0.1,0.4,0.1c0.2,0,0.3,0.1,0.4,0.3c0.1,0.2,0.3,1,0.8,0.9l0.3-0.3c0,0,0.5,0.2,0.6,0.2c0.1,0,0.9,0.4,1.8-0.9l0,0
				c0,0-1,1.7-1.4,2.1c-0.2,0.2-0.5,0.4-0.8,0.5c-0.1,0.1-0.3,0.1-0.4,0.1l-2.9,0.3l-0.3,0C35.7,123.9,35.3,122.8,35.2,122.2"/>
			<path class="st1" d="M38.8,110.2L38.8,110.2c0.1-0.1,0.1-0.1,0.2-0.2c0.2-0.3,0.1-0.9,0.1-1c0-0.2,0.1-0.3,0.2-0.4
				c0.2-0.1,0.2-0.6,0.2-0.7c0-0.1,0.2-0.2,0.3-0.3c0.1-0.1-0.1-0.7-0.1-0.8c0-0.1,0-0.3,0.1-0.4l0.1,0c1.4,0.6,2.5,1.5,3.3,2.8
				c0.2,0.4,0.4,0.8,0.5,1.2c0,0.1,0,0.2,0,0.2v0l0,0c0.4,0.3,0.8,0.6,1.1,1l-0.3,0.1c-1.2,0.2-2.3,0.6-3.4,1.2
				c-0.2,0-0.4,0.1-0.6,0.2l0-0.1C38.5,111.6,38.9,110.2,38.8,110.2L38.8,110.2L38.8,110.2z"/>
			<path class="st1" d="M37.4,136.6c-0.7-0.1-0.6-0.8-0.6-0.8s0.3-0.9,0.3-1c0-0.3,0.1-0.6,0-0.9c0.1-0.5,0.2-0.9,0.5-1.3
				c0.2-0.5,0.3-1,0.2-1.5c0-0.2,0-2.6,0-2.6l0,0h0c0.1-0.2,0.2-0.4,0.3-0.6l0.1,0c1-0.2,2-0.4,3.1-0.5l0,0.1c0,1.1-0.3,2.2-0.7,3.2
				c0,0-1.1,1.7-1.3,2c-0.1,0.3-0.2,0.7-0.1,1c0,0.2-0.1,0.4-0.1,0.5c0,0.3,0.1,0.7,0.3,0.9c0.2,0.2,0.4,0.4,0.5,0.6
				c0.1,0.2-0.2,0.6-0.5,0.8C38.7,136.7,38,136.7,37.4,136.6"/>
			<path class="st1" d="M33.8,106c0.1-0.5,0.2-0.9,0.4-1.4c0.1-0.4,0.2-0.8,0.4-1.2c0.1-0.1,0.2-0.3,0.3-0.4v0
				c0.2-0.2,0.4-0.5,0.7-0.7c0.4-0.2,0.8-0.3,1.2-0.4c0.7-0.1,1.3,0.1,1.9,0.5c0,0,0.7,0,0.9,0.5c0.3,0.5,0.5,0.9,0.6,1.5
				c0,0.2-0.2,0.5-0.2,0.6c0,0.3,0,0.7-0.1,1c0,0,0,0,0,0.1c-0.1,0.1-0.1,0.3-0.1,0.4c0,0.2,0.2,0.7,0.1,0.8
				c-0.1,0.1-0.3,0.2-0.3,0.3c0,0.1,0,0.6-0.2,0.7c-0.1,0.1-0.2,0.2-0.2,0.4c0,0.1,0.1,0.7-0.1,1c-0.1,0.1-0.1,0.2-0.2,0.2v0
				c-0.1,0.1-0.2,0.1-0.2,0.1c-0.1-0.1-0.2,0.2-0.2,0.2l-0.1,0.2c0,0-0.1,0.5-0.2,0.4c-0.1,0-0.3-0.5-0.3-0.5l0.2-1.1l0.1-1.3l0-0.1
				l1.1-1.7c0-0.3-0.1-0.6-0.2-0.9c-0.2-0.2-0.4-0.4-0.5-0.7c0-0.2-0.1-0.7-0.1-0.7s-0.8,0.6-0.9,0.7c-0.3,0-0.6,0-0.9,0
				c-0.2,0-0.4,0.1-0.6,0.3c-0.1,0.2-0.4,0.7-0.5,0.8c-0.1,0.3-0.2,0.6-0.2,1c0,0.1-0.1,0.3-0.1,0.4c-0.1,0.1-0.1,0.2-0.2,0.3
				c-0.1,0.2,0,0.4,0.1,0.7c0,0.3,0,0.6-0.1,1c0,0.1-0.3,0.1-0.4,0.1c-0.1,0-0.3,0.1-0.4,0.2c0,0,0.1-0.4,0.1-0.5
				c-0.1-0.3-0.2-0.6-0.3-0.9C33.9,107.4,33.8,106.7,33.8,106"/>
			<path class="st1" d="M33,140.2l-0.3,0.1l0.3-2.1l0,0c0.1-0.2,0.2-0.4,0.3-0.6c0.1-0.6,0.3-1.1,0.6-1.7c0.2-0.3,0.5-0.4,0.8-0.5
				l0.1,0.5l0.5,3.8l-0.1,0.3l-1-2.6L33,140.2z"/>
			<path class="st1" d="M35.3,106.8c0-0.3,0.1-0.6,0.2-1c0.1-0.1,0.4-0.7,0.5-0.8c0.1-0.2,0.4-0.3,0.6-0.3c0.3,0.1,0.6,0.1,0.9,0
				c0.2-0.1,0.9-0.7,0.9-0.7s0.1,0.5,0.1,0.7c0.1,0.3,0.3,0.5,0.5,0.7c0.1,0.3,0.2,0.6,0.2,0.9l-1.1,1.7l0,0.1l-0.1,0
				c-0.6,0.4-1.2,0.6-1.9,0.6c-0.7-0.2-1-1.4-1-1.4l-0.1,0h0C35.3,107.1,35.3,107,35.3,106.8"/>
			<polygon class="st1" points="28,141.4 32.7,140.3 33,140.2 34.7,139.8 35,139.7 36.1,139.5 40.9,140.5 32.5,142.8 			"/>
			<path class="st1" d="M32.2,134.3c0.1-0.6,0.4-1.1,0.7-1.6c0.1-0.3,0.4-1.1,0.6-1.8c0.3-0.9,0.5-1.8,0.5-1.8
				c0.1-0.9,0.3-1.7,0.5-2.5c0.2-0.7,0.5-1.2,1-1.7c0.2-0.3,0.3-0.6,0.4-0.9l0-0.1l2.9-0.3c0.1,0,0.3-0.1,0.4-0.1l0.2,0.1l-0.9,2
				c0,0.9-0.2,1.7-0.6,2.4c-0.1,0.2-0.2,0.4-0.3,0.6c-1,1.9-2.6,3.7-2.6,4c-0.1,0.4-0.2,0.6,0.1,1.8c0.1,0.6,0,1.2-0.3,1.6l-0.1,0
				l-0.1-0.5c-0.3,0-0.6,0.2-0.8,0.5c-0.3,0.5-0.5,1.1-0.6,1.7c-0.1,0.2-0.1,0.4-0.3,0.6v0c-0.3,0-0.3-0.4-0.3-0.4l-0.1-2
				c-0.1-0.1-0.2-0.2-0.2-0.3C32.2,135.1,32.1,134.7,32.2,134.3"/>
			<polyline class="st2" points="32.9,127.2 32.9,127.2 32.9,127.2 32.9,127.2 			"/>
			<path class="st2" d="M32.9,127.2L32.9,127.2L32.9,127.2z"/>
			<path class="st1" d="M30.8,129.7c-0.4-0.4,0.2-0.3,0.1-0.5c-0.1-0.2,0.1-0.2,0.3-0.1c0.1,0,0.4,0.5,0.5,0.5
				c0,0.1,0.4-0.2,0.5-0.2c0.1-0.1,0.1-0.3,0.1-0.4c0.1-0.4,0.1-0.7,0.2-1.1c0.1-0.2,0-0.1,0.5-0.7l0,0c0,0,0.1-0.1,0.5-0.5
				c0.3-0.3,0.8-0.4,1.1-0.2l0,0c-0.3,0.8-0.4,1.7-0.5,2.5c0,0-0.3,0.9-0.5,1.8l0,0l-0.3,0.5l-0.3,0.4c-0.3,0.4-0.5-0.2-0.5-0.2
				c0-0.3,0.1-0.6,0.2-0.8c0.1-0.2,0.1-0.4,0.1-0.6l-0.1,0c-0.2,0.3-0.5,0.4-0.9,0.3c-0.2-0.1-0.5-0.2-0.7-0.4L30.8,129.7z"/>
			<path class="st2" d="M32.9,127.2L32.9,127.2z"/>
			<path class="st1" d="M33.3,115c0,0,0-0.2,0.1-0.4c0-0.1-0.3-0.4-0.4-0.4c0,0,0-0.2,0-0.3c-0.1-0.2-0.1-0.4-0.2-0.6
				c0,0,0-0.1,0-0.1l0,0c0,0,0.7-1.1,0.7-1.2c0.6-1.2,0.6-2.6,0-3.7c-0.1-0.4-0.7,0.3-0.7,0.3l0,0c0.2-0.3,0.2-0.6,0-0.9
				c-0.3-0.7-1.6-1.3-2-1.5c-0.1,0-0.3-0.1-0.4,0l0-0.1c-0.3-0.6-0.1-1.3,0.3-1.7c0.8-0.9,1-1,1.3-1.1c0.3,0,0.9-0.1,0.9-0.1
				c0.6-0.4,1.4-0.5,2.1-0.1v0c-0.1,0.1-0.2,0.3-0.3,0.4c-0.2,0.4-0.3,0.8-0.4,1.2c-0.2,0.5-0.3,0.9-0.4,1.4c0,0.7,0.1,1.3,0.3,2
				c0.1,0.3,0.2,0.6,0.3,0.9c0,0.1-0.1,0.5-0.1,0.5c0.1-0.1,0.3-0.1,0.4-0.2c0.1,0,0.3,0,0.4-0.1c0.1-0.3,0.1-0.6,0.1-1
				c0-0.3-0.1-0.5-0.1-0.7c0-0.1,0.1-0.2,0.2-0.3h0l0.1,0c0,0,0.4,1.3,1,1.4c0.7,0,1.3-0.2,1.9-0.6l0.1,0l-0.1,1.3l-0.2,1.1
				c0,0,0.2,0.5,0.3,0.5c0.1,0,0.2-0.5,0.2-0.5l0.1-0.2c0,0,0.1-0.2,0.2-0.1c0,0.1,0.1,0,0.2-0.1h0l0,0c0,0-0.3,1.4,1.5,2.7l0,0.1
				c-0.5,0.2-0.9,0.5-1.2,0.9v0l0,0.1c-0.2,0-0.4,0-0.4,0.1c-0.3,0.1-0.5,0.2-0.8,0.2c-0.1,0-0.5,0.3-0.9,0.4
				c-0.4,0.1-0.2,0.7-0.7,0.8c-0.2,0-0.3,0.1-0.4,0.3"/>
			<path class="st1" d="M28.5,112.7c0.1-0.4,0.3-0.8,0.6-1.1c0.5-0.2,1-0.3,1.5-0.2c0,0,0.3,0.3,0.4,0.4c0.2,0.1,0.4,0.2,0.5,0.3
				c0.1,0.1,0.2,0.2,0.2,0.4c0.1,0.2,0.2,0.3,0.3,0.4c0.1,0.2,0.2,0.5,0.2,0.7c0,0.1,0.1,0.6,0.1,0.6c0,0.1,0.2,0.7,0,0.8
				c-0.2,0.2,0,1.6-0.2,1.7c-0.3,0.4-0.5,1-0.8,1.1c-0.7,0.1-1.4,0.1-2.1,0l0.2-1.9c0-0.1-0.1-0.3-0.1-0.4c-0.2-0.4-0.2-0.7-0.3-1.1
				c0-0.3-0.1-0.6-0.3-0.8C28.6,113.3,28.4,113,28.5,112.7"/>
			<path class="st1" d="M27.1,126.1l-0.4,0.1l-0.3-0.8c0.1-0.2,1.1-0.1,1.2-0.2c0.1-0.1,0.4,0,0.5-0.1c0-0.2,0.2-0.1,0.4-0.2
				c0.2-0.1,0.2-0.3,0.4-0.3c0.1,0,0.3-0.1,0.4-0.3c0-0.1,0.3-0.1,0.5-0.2c0.3-0.1,0.6-0.3,0.8-0.5c0.1-0.1,0.3-0.1,0.5-0.1
				c0.1,0,0.2,0.3,0.2,0.3c0,0.3-0.2,0.6-0.5,0.8c0,0,0,0.8,0,1.1c0,0.3-0.5,0.2-0.5,0.2s-0.2,0.4-0.3,0.4c-0.2,0-0.3,0.2-0.4,0.2
				c-0.2,0.1-0.4,0.2-0.5,0.3c-0.2,0.1-1.1-0.2-1.1-0.2L27.1,126.1z"/>
			<path class="st1" d="M28,108.9c-0.2,0-0.5-0.1-0.6-0.3c0-0.1,0.4-0.3,0.4-0.3c0.3-0.2,0.7-0.3,1.1-0.4c0.1,0,0.2,0,0.3,0
				c0.3-0.1,0.7,0,1,0.2l0.4,0.3l0.1,0h0c-0.1-0.1-0.1-0.2-0.1-0.2c0-0.1,0-0.2,0-0.3c0.1-0.1,0.3,0,0.3,0c0.1,0.1,0.2,0.2,0.3,0.3
				c0.2,0.1,0.2,0,0.3,0.7c0,0.1,0,0.2,0,0.3c0,0.3-0.4,0.3-0.9,0.6c-0.4,0.2-0.8,0.2-1.2,0c0,0-0.9-0.9-1-0.9
				c-0.1-0.1-0.2-0.1-0.2,0C28.3,108.9,28.4,108.9,28,108.9"/>
			<path class="st1" d="M29.2,107.8c0,0,0-0.9,0.2-1.1c0.2-0.2,0.5-0.4,0.8-0.5c0.1,0,0.3,0,0.4,0c0.4,0.2,1.7,0.8,2,1.5
				c0.2,0.3,0.2,0.6,0,0.9c-0.1,0.1-0.2,0.2-0.3,0.2c-0.2,0.1-0.5,0.2-0.8,0.2l0,0c0-0.1,0-0.2,0-0.3c-0.2-0.7-0.1-0.5-0.3-0.7
				c-0.1-0.1-0.2-0.2-0.3-0.3c0,0-0.3-0.1-0.3,0c-0.1,0.1-0.1,0.2,0,0.3c0,0,0.1,0.1,0.1,0.2h0l-0.1,0l-0.4-0.3
				C29.9,107.9,29.6,107.8,29.2,107.8L29.2,107.8L29.2,107.8z"/>
			<polygon class="st1" points="28,141.4 32.5,142.8 32.4,143.4 32.4,143.6 32.5,143.7 32.4,144 27.9,142.6 28,141.4 			"/>
			<path class="st1" d="M28,118c-0.2-0.2-1.1,0.1-1.2-0.2c-0.1-0.3-0.3-0.3-0.9-0.8c-0.6-0.4,0.1-1,0.2-1c0.2,0,0.1-0.1,0.1-0.1
				c0-0.1,0.1-0.2,0.3-0.4c0.2-0.2,0.1-0.2,0.2-0.8c0-0.6,0.3-0.8,0.3-0.8c-0.1-0.4,0-0.9,0.2-1.3c0-0.4,0.6-0.8,0.6-0.8
				c0.2-0.4,0.6-0.6,1.1-0.5c0.3-0.1,0.6-0.3,0.6-0.3c0.2,0,0.3,0,0.5,0c0.2-0.1,0.4-0.1,0.6-0.1c0.2,0,0.4,0.1,0.4,0.3
				c0,0,0.4,0,0.4,0.2c0.1,0.2,0.5,0.1,0.5,0.6c0.1,0.2,0.2,0.4,0.3,0.6c0,0.2,0.3,0.1,0.4,0.5c0,0,0,0.1,0,0.1
				c0,0.2,0.1,0.4,0.2,0.6c0.1,0.2,0,0.3,0,0.3c0,0,0.4,0.3,0.4,0.4c0,0.1-0.1,0.4-0.1,0.4c0.2,0.2,0.2,0.4,0.2,0.6
				c-0.1,0.3,0.2,0.6-0.2,0.9c-0.4,0.3-0.5,0.4-0.4,0.5c-0.1-0.1-0.3-0.1-0.4-0.2c-0.1,0-0.2-0.1-0.2-0.1c-0.1-0.1-0.2-0.1-0.2-0.2
				c0-0.1-0.2-0.1-0.1-0.9l-0.1-0.1c0.2-0.1,0.4-0.2,0.6-0.4c0.2-0.2,0-0.7,0-0.8c0-0.1-0.1-0.5-0.1-0.6c0-0.2-0.1-0.4-0.2-0.6
				c0-0.1,0-0.1-0.1-0.2c-0.1-0.1-0.2-0.3-0.3-0.4c0-0.1-0.1-0.3-0.2-0.4c-0.2-0.1-0.4-0.2-0.5-0.3c-0.1-0.1-0.4-0.4-0.4-0.4
				c-0.5-0.1-1.1-0.1-1.5,0.2c-0.3,0.3-0.5,0.7-0.6,1.1c0,0.3,0.1,0.6,0.3,0.8c0.2,0.2,0.3,0.5,0.3,0.8c0,0.4,0.1,0.8,0.3,1.1
				c0.1,0.1,0.1,0.3,0.1,0.4c0.1,0.3,0.1,0.6,0.1,0.9c-0.1,0.3-0.1,0.6-0.1,0.8c0,0.2-0.4,0.4-0.4,0.5C29,118.1,28.3,118.2,28,118"
				/>
			<path class="st1" d="M20.1,105.9c-0.2-0.4,0.6-0.9,0.6-0.9c0-0.5,0.6-0.4,0.6-0.4c0-0.4,0.8-0.3,0.8-0.3c0.4-0.5,0.4-0.5,0.4-0.5
				c0.6-0.1,1.3-0.2,2-0.1c1.1-0.2,1.1,0.3,1.1,0.3c0.4,0,0.7,0.1,1,0.4c0.2-0.2,0.5,0.1,0.5,0.1c0.4,0.1,0.7,0.4,0.8,0.7
				c0.8,0.2,0.4,0.8,0.4,0.8c0.5,0.4,0,0.6,0,0.8c0,0.1,0,0.3-0.4,0.4c-0.2,0-0.3,0-0.5-0.1c-0.3-0.2-0.7-0.4-0.9-0.5
				c-0.3-0.1-0.2-0.2-0.2-0.2c-0.2,0-0.2,0.1-0.3-0.1l-0.1,0c0,0,0,0.5-0.2,0.7c-0.2,0.2-0.3,0.2-0.4,0.2c-0.1,0-0.4,0.3-0.6,0.4
				c-0.1,0.1-0.2,0.1-0.4,0.2c-0.1,0-0.3,0.5-0.6,0.3c0,0-0.2-0.2-0.3-0.1c-0.2,0.2-0.5,0.2-0.8,0.1c-0.2-0.1-0.6-0.2-0.7-0.4
				c0-0.1-0.4-0.3-0.7-0.4l-0.1,0c-0.2-0.4-0.4-0.7-0.7-0.9C20.4,106.2,20.3,106.1,20.1,105.9L20.1,105.9L20.1,105.9z"/>
			<path class="st1" d="M22.3,114.3c0-0.3,0.1-0.7,0.3-1c0.2-0.2,0.4-0.3,0.7-0.4l0.5,0.1l0.5,0.1l0.3,0c0,0,0.7,0.1,0.8,0.1
				c0.1,0,0.8,0.1,0.8,0.1c0.1,0.2-0.3,0.3-0.3,0.3l-0.7,0.1l0.2,0.4c0.2,0.4-0.3,0.6-0.3,0.6c0.1,0.7-0.3,0.9-0.3,0.9
				c-0.6,0.3-1.3,0.2-1.8-0.2c-0.1-0.1-0.2-0.1-0.3-0.2C22.2,115.2,22.3,114.8,22.3,114.3"/>
			<path class="st1" d="M22.6,131.3L22.6,131.3c0.6-0.1,1.1-0.2,1.6-0.6c0.3-0.2,0.6-0.5,0.8-0.8h0l0,0c1.5-0.2,1.8-2,1.9-2.6
				l-0.1,0.8c0,0-0.3,1.3-0.3,1.2c-0.1,0.6-0.3,1.2-0.5,1.8c-0.1,0.3-0.6,1.5-0.7,1.7l-1.5,1.5l-0.1-0.1c-0.1-0.3-0.2-0.7-0.3-1
				C23.1,132.5,22.9,131.9,22.6,131.3L22.6,131.3z"/>
			<path class="st1" d="M19.7,114.2c-0.1-0.3-0.1-0.5,0-0.8l0-0.1l0.9-0.5c0,0,1.3-0.5,2.1-0.8l0.2,0.1c0,0,0.9,0.6,1,0.9l0,0.1
				l-0.5-0.1c-0.3,0.1-0.5,0.2-0.7,0.4c-0.2,0.3-0.3,0.6-0.3,1c0,0.4-0.1,0.9,0.4,1.1c0.1,0,0.2,0.1,0.3,0.2l0,0c0,0-1.3,0-1.4-0.1
				C20.7,115.5,20,114.9,19.7,114.2"/>
			<path class="st1" d="M21,110c0.2-0.3,0.4-0.6,0.5-1c0.2-0.6,0.1-1.3-0.1-1.8l0.1,0c0.3,0.2,0.6,0.3,0.7,0.4
				c0.1,0.2,0.5,0.3,0.7,0.4c0.3,0.1,0.6,0.1,0.8-0.1c0.2-0.2,0.3,0.1,0.3,0.1c0.2,0.2,0.5-0.3,0.6-0.3c0.1,0,0.3-0.1,0.4-0.2
				c0.2-0.1,0.5-0.4,0.6-0.4c0.1,0,0.2,0,0.4-0.2c0.2-0.2,0.2-0.7,0.2-0.7l0.2-0.1c0.1,0.1,0.2,0.2,0.3,0.3c0,0-0.1,0.1,0.2,0.2
				c0.2,0.1,0.5,0.3,0.9,0.5l0,0c-0.1,0.1-0.1,0.2-0.2,0.3c-0.2,0.6-0.5,1.2-0.6,1.8c-0.1,0.5-0.4,0.1-0.4,0.1
				c-0.1,0.1-0.2,0.2-0.2,0.2c-0.1,0-0.2,0.1-0.4,0.1c0,0-0.1,0.2-0.2,0.2c-0.1,0.1-0.2,0.1-0.2,0.3c0,0.1,0,0.2-0.2,0.2
				c-0.3,0-0.5-0.1-0.8-0.3l-0.9-0.5l-0.1-0.1l-2.2,0.6L21,110z"/>
			<path class="st1" d="M13.4,127.1c-0.3-0.2-0.2-0.5-0.2-1.3c0-0.8,1.4-1.1,1.7-1.2c0.4,0,1.8-0.4,1.8-0.4l1.4-0.6l0,0
				c0,0,0.1,0.1,0.1,0.1c0.2,0.1,0.3,0.3,0.5,0.5c0.2,0.1,0.4,0.1,0.6,0.1c0.2,0,0.3-0.1,0.4-0.2c0.1-0.1,0.1-0.3,0.1-0.4
				c0-0.2,0.1-0.4,0.1-0.6c0-0.1,0.1-0.4,0.2-0.5v0c0.1-0.1,0.4-0.2,0.4-0.2c0.1,0,0.2-0.1,0.3-0.2c0.1,0,0.2,0.1,0.3,0.1
				c0.3,0.1,0.6,0.1,0.9,0c0.2-0.1,0.2-0.1,0.2-0.2l0,0c0.8,0.2,1.6,0.5,2.3,0.9c0,0,0,0,0,0v0l0,0c0.4,0.2,0.6,0.5,0.7,0.9
				c0,0.1,0.1,0.2,0.2,0.3c0.1,0.1,0,0.1,0.1,0.3c0.2,0.2,0.4,0.4,0.5,0.6c0.1,0.2,0.2,0.5,0.3,0.6l0,0c0.1,0.5,0.3,1.2,0.3,1.2
				l0.1,0.6v0c-0.1,0.6-0.3,2.4-1.9,2.6l0,0h0c-0.2,0.3-0.5,0.6-0.8,0.8c-0.5,0.3-1,0.5-1.6,0.6v0c-0.5,0.1-1-0.1-1.4-0.5l-0.2,0
				c0.2-0.4,0.4-0.9,0.5-1.4c0,0,1.1-0.1,1.1-0.7c0-0.5,0.4-1.3-2.7-2.4c-0.6,0.4-1,0.9-1.4,1.5c-0.3,0.5-0.5,1.1-0.6,1.7l-0.1,0
				c-1-0.8-2-1.7-2.8-2.6v0l0,0c-0.4,0.2-0.7,0.4-1.1,0.6l0,0C13.8,127.3,13.6,127.2,13.4,127.1"/>
			<path class="st1" d="M17.8,131.7c0-0.7,0.1-1.5,0.2-2.2c0.2-0.6,0.4-1.1,0.6-1.7c0.3-0.6,0.8-1.1,1.4-1.5
				c3.1,1.1,2.7,1.9,2.7,2.4c0,0.5-1.1,0.7-1.1,0.7c-0.1,0.5-0.3,1-0.5,1.4c-0.1,0.2-0.2,0.3-0.2,0.3l-0.4,0.9
				c-0.2,0.6-0.5,1.1-0.6,1.7c0,0.3,0.5,0.4,0.7,0.4c0.3,0.1,0.6,0.3,0.8,0.5c0.2,0.1,0.3,0.3,0.4,0.5c0,0.1,0.1,0.1,0.2,0.2
				c0.1,0.1,0.3,0.2,0.4,0.3c0,0,0.6,0.8,0.7,0.9c0.1,0.1,0.1,0.2,0.1,0.3c-0.1,0-0.1,0.1-0.2,0.1l-0.9-0.5l-0.6-0.2
				c0.2,0.2,0.4,0.5,0.6,0.8c0,0,0.2,0.5,0.3,0.7c0.1,0.2,0,0.3-0.2,0.4c-0.1,0.1-0.3-0.2-0.3-0.2l-0.4-0.6l-0.7-0.9l0.1,0.4
				l0.1,0.4l0.2,0.6c0,0,0.1,0.4,0.2,0.5c0,0.1,0,0.2-0.1,0.2c-0.1,0.1-0.3,0-0.3,0l-0.7-1.4c0,0,0,0.2,0,0.3c0,0.2-0.4,0.4-0.5,0.4
				c-0.1,0-0.2,0.1-0.3,0.2c-0.1,0.1-0.2,0-0.2,0c-0.2-0.1-0.1-0.3-0.1-0.4c0,0,0.3-0.2,0.3-0.2c0.1-0.1-0.1-0.4-0.1-0.5
				c-0.2-0.2-0.3-0.3-0.5-0.4c-0.1,0-0.5-0.4-0.5-0.4c-0.4-0.6-0.7-1.4-0.6-2.1v0C17.8,133,17.8,132.3,17.8,131.7"/>
			<path class="st1" d="M18.4,113.9c-0.1-0.2,0-0.2,0-0.2c0.5-0.6,0.8-1.3,0.9-2.1c0.2-0.5,0.5-0.6,0.8-0.7c0.3-0.2,0.6-0.5,0.8-0.8
				l0.1,0.1l2.2-0.6l0.1,0.1l0,0c0.1,0.5-0.1,1-0.3,1.4h0l0.1,0c0,0.3,0,0.5,0,0.8c-0.1,0.1-0.3,0.2-0.5,0.3h0
				c-0.7,0.3-2.1,0.8-2.1,0.8l-0.9,0.5L18.4,113.9L18.4,113.9z"/>
			<path class="st1" d="M13.5,109.8c-0.7-0.9-0.2-1.7,0.8-2.8c0.9-1,3.7-1.3,4.3-1.3l0,0c0.5,0,1,0.1,1.5,0.4
				c0.2,0.1,0.3,0.2,0.5,0.3c0.3,0.2,0.6,0.6,0.7,0.9c0.3,0.6,0.3,1.2,0.1,1.8c-0.1,0.3-0.3,0.7-0.5,1c-0.2,0.3-0.5,0.6-0.8,0.8
				c-0.3,0.2-0.6,0.2-0.8,0.7c-0.2,0.8-0.5,1.5-0.9,2.1c0,0-0.1,0,0,0.2c0,0.1,0.1,0.2,0.1,0.3c0.4,0.8,0.7,1.7,0.8,2.7
				c0,0.9,0.1,1.8,0.4,2.6c0.2,0.7,0.7,1.6,0.9,1.6c0.2,0,0.5,0.1,0.7,0.3c0.2,0.2,0.5,0.3,0.7,0.4c0.1,0,0.3,0.1,0.3,0.2
				c0,0.1,0,0.1-0.2,0.2c-0.3,0.1-0.6,0.1-0.9,0c-0.1-0.1-0.2-0.1-0.3-0.1c-0.1,0-0.2,0.1-0.3,0.2c-0.1,0-0.3,0.1-0.4,0.2v0
				c0,0.1-0.1,0.4-0.2,0.5c0,0.2-0.1,0.4-0.1,0.6c0,0.2,0,0.4-0.1,0.4c-0.1,0.1-0.3,0.2-0.4,0.2c-0.2,0-0.4,0-0.6-0.1
				c-0.2-0.1-0.3-0.3-0.5-0.5c0,0-0.1-0.1-0.1-0.1c-0.2-0.2-0.2-0.5-0.2-0.8c0.1-0.3,0.2-0.7,0.4-1c0-0.1-0.5-1.5-0.5-1.5
				s-0.8-1.1-1-1.4c-0.4-0.6-0.7-1.2-0.9-1.9c-0.1-0.5-0.2-1-0.3-1.5c-0.1-0.3-0.1-0.6-0.1-1c0-0.1,0-0.3,0-0.5
				c0.1-0.8,0.1-1.6,0.1-2.4c0-0.1,0-0.2,0-0.3l-0.1,0C15,111.5,14.2,110.7,13.5,109.8"/>
			<path class="st1" d="M10.3,126.8c0-0.3,0.1-0.6,0.2-1c0.2-0.7,0.3-1.4,0.4-2.1c0-0.5-0.4-2.8-0.4-4.3c0-0.9,0.3-1.8,0.9-2.5l0,0
				c1.5,0.1,3.1,0,4.6-0.2l0,0c0.2,0.7,0.5,1.4,0.9,1.9c0.1,0.3,1,1.4,1,1.4s0.5,1.4,0.5,1.5c-0.2,0.3-0.3,0.7-0.4,1
				c-0.1,0.3,0,0.6,0.2,0.8l0,0l-1.4,0.6c0,0-1.5,0.4-1.8,0.4c-0.4,0-1.8,0.3-1.7,1.2c0,0.8-0.1,1.1,0.2,1.3
				c0.2,0.1,0.4,0.3,0.6,0.4l0,0c-0.2,0.1-0.4,0.3-0.6,0.5c-0.4,0.4-0.6,0.8-0.8,1.3l-0.1,0c-0.4-0.3-0.7-0.5-1.1-0.7
				c-0.1,0-0.3,0-0.6-0.1l0-0.1v0C10.5,127.9,10.3,127.4,10.3,126.8"/>
			<path class="st1" d="M8,116.4c-0.8-1.3-0.3-1.8-0.2-1.9c0.3,0.4,0.8,0.6,1.3,0.6c0.9-0.1,1.9-0.5,2.4-0.1
				c0.5,0.3,1.3,1.2,2.2,0.6c0.7-0.4,1.3-0.9,1.6-1.1l0.2-0.1l0.1,0c0,0.3,0,0.7,0.1,1c0,0.5,0.1,1,0.3,1.5l0,0
				c-1.5,0.2-3.1,0.3-4.6,0.2c-0.6,0-1.2-0.1-1.8-0.2c-0.3-0.1-0.7-0.1-1-0.2v0C8.4,116.5,8.2,116.4,8,116.4"/>
			<path class="st1" d="M7.3,114c-0.2-0.2-0.4-1.1-0.2-1.3c0.2-0.2,0.9-1,0.9-1c1.1-1.9,2.2-2.2,2.2-2.2l0.1,0
				c-0.1,0.8-0.2,1.8-0.2,2c0.2,0.5,0.5,1,0.9,1.4c0.4,0.2,0.8,0.4,1.2,0.5c0.3,0,1.6,0.5,1.8,0.6l1.3,0.4l0,0.1
				c-0.3,0.2-0.9,0.7-1.6,1.1c-0.9,0.6-1.8-0.2-2.2-0.6c-0.5-0.3-1.5,0-2.4,0.1c-0.5,0-1-0.2-1.3-0.6C7.6,114.3,7.4,114.1,7.3,114"
				/>
			<path class="st1" d="M9.5,132c-1.6,0-1.1-1.7-1-2.3c0.1-0.6,1.1-1.2,1.5-1.3c0.3,0,0.5,0,0.8,0.1c0.3,0,0.5,0.1,0.6,0.1
				c0.4,0.2,0.8,0.4,1.1,0.7l0.1,0c-0.1,0.5,0.1,0.9,0.5,1.1l0,0c-0.4,0-1,0-1.1,0c-0.6,0.2-1.1,0.5-1.6,0.9c0,0-0.1,0.1-0.1,0.1
				C10.1,131.6,9.8,131.8,9.5,132"/>
			<path class="st1" d="M11.2,141.1c-0.3-0.5-0.5-1-0.7-1.5c0.1-0.7,0.4-1.4,0.7-2c0.2-0.4,0.3-0.9,0.3-1.4c0-0.2,0.1-0.4,0.3-0.5
				l0-0.1c0,0,0,0,0.1,0.1c1.1,1.1,2.3,2,3.6,2.8c1.4,0.7,4.4,1.9,4.7,2c0.1,0,0.2,0.1,0.4,0.1l0,0l0.7,0.1c2.7,0.1,2.8-1.1,3.3-2.1
				c0.1-0.1,0.1-0.3,0.1-0.4l0.1,0c0.2,0.3,0.4,0.6,0.6,0.9c0.2,0.7,0.2,1.3,0.1,2c0,0.4-0.3,0.4-0.8,1c-0.5,0.6-1.8,0.4-2.3,0.2
				c-0.9-0.2-1.8-0.4-2.7-0.5c-0.9-0.3-1.8-0.7-2.6-1.2c-0.8-0.6-1.6-1.2-2.3-1.8c-0.3-0.2-0.6-0.3-0.9-0.3
				c-0.6,0.3-1.1,0.6-1.6,0.9c-0.1,0.1-0.3,0.2-0.3,0.4c-0.1,0.1,0,0.2,0.1,0.4c0.1,0.1,0.2,0.1,0.3,0.2c0.1,0,0.3,0.1,0.4,0.2
				c0.1,0-0.2,0.5-0.3,0.5c-0.1,0-0.1,0.2-0.1,0.2s-0.2,0.1-0.3,0.2c-0.1,0-0.2,0-0.3,0c-0.1,0-0.2,0-0.4,0
				C11.3,141.2,11.3,141.2,11.2,141.1"/>
			<path class="st1" d="M10.1,111.5c0-0.2,0.1-1.2,0.2-2c0-0.2,0.1-0.3,0.1-0.5c0.2-0.7,0.8-0.9,1.2-1.2c0.4-0.2,0.9-1.2,1.4-1.5
				c0.9-0.3,1.8-0.6,2.7-0.7c0.9-0.1,1.9-0.1,2.8,0c0,0,0.1,0,0.2,0l0,0c-0.6,0-3.4,0.3-4.3,1.3c-1,1.1-1.6,1.9-0.8,2.8
				c0.7,0.9,1.5,1.7,2.2,1.4l0.1,0c0,0.1,0,0.3,0,0.3c0,0.8,0,1.6-0.1,2.4c0,0.2,0,0.3,0,0.5l-0.1,0c0,0-0.1,0-0.2,0.1l0-0.1
				l-1.3-0.4c-0.2-0.1-1.5-0.6-1.8-0.6c-0.4-0.1-0.9-0.2-1.2-0.5C10.6,112.5,10.3,112,10.1,111.5"/>
			<path class="st1" d="M11.1,132.9c0.8,0.7,1.8,1.2,2.9,1.2c1.5,0.1,3,0.3,3.9-0.5c0,0.8,0.2,1.5,0.6,2.1c0,0,0.5,0.4,0.5,0.4
				c0.2,0.1,0.4,0.3,0.5,0.4c0,0.1,0.2,0.4,0.1,0.5c-0.1,0.1-0.3,0.2-0.3,0.2c0,0-0.1,0.3,0.1,0.4c0,0,0.1,0.1,0.2,0
				c0.1-0.1,0.2-0.1,0.3-0.2c0.1,0,0.5-0.2,0.5-0.4c0-0.2,0-0.3,0-0.3l0.7,1.4c0,0,0.2,0.1,0.3,0c0.1-0.1,0.1-0.1,0.1-0.2
				c0-0.1-0.2-0.5-0.2-0.5l-0.2-0.6l-0.1-0.4l-0.1-0.4l0.7,0.9l0.4,0.6c0,0,0.2,0.2,0.3,0.2c0.1,0,0.3-0.1,0.2-0.4
				c-0.1-0.2-0.3-0.7-0.3-0.7c-0.2-0.3-0.3-0.6-0.6-0.8l0.6,0.2l0.9,0.5c0.1,0,0.1,0,0.2-0.1c0-0.1,0-0.2-0.1-0.3s-0.7-0.9-0.7-0.9
				c-0.1-0.1-0.3-0.2-0.4-0.3c-0.1-0.1-0.1-0.1-0.2-0.2c-0.1-0.2-0.3-0.3-0.4-0.5c-0.3-0.2-0.5-0.3-0.8-0.5c-0.2,0-0.7-0.1-0.7-0.4
				c0.2-0.6,0.4-1.2,0.6-1.7l0.4-0.9c0,0,0.1-0.1,0.2-0.3l0.2,0c0.4,0.4,0.9,0.6,1.4,0.5l0,0.1c0.3,0.6,0.5,1.2,0.7,1.8
				c0,0.3,0.4,1.4,0.7,2.3c0.2,0.6,0.3,1.1,0.4,1.1c0.3,0.4,0.4,0.9,0.3,1.4c0,0,0,0.1,0,0.1c0,0.1-0.1,0.3-0.1,0.4
				c-0.5,1.1-0.6,2.2-3.3,2.1l-0.7-0.1l0,0c-0.2-0.1-0.3-0.1-0.4-0.1c-0.3-0.1-3.4-1.3-4.7-2c-1.3-0.8-2.5-1.7-3.6-2.8
				c0,0,0,0-0.1-0.1C11.1,134.9,10.9,133.9,11.1,132.9L11.1,132.9L11.1,132.9z"/>
			<path class="st1" d="M7.4,127.7c-0.6,0-0.4-0.3-0.4-0.3c0.1-0.1,0.2-0.4,0.3-0.5c1.2-1.6,0.9-4.4,0.9-6.5c0-1.3,0.4-2.6,1.3-3.5
				l0-0.1c0.6,0.1,1.2,0.2,1.8,0.2l0,0c-0.6,0.7-0.9,1.6-0.9,2.5c0,1.5,0.4,3.8,0.4,4.3c-0.1,0.7-0.2,1.4-0.4,2.1l-0.2,0.9l0.2,1.3
				c0,0,0.2,0.5-0.6,0.4c-0.5,0.2-1,0.1-1.4-0.3C8.2,127.8,7.8,127.7,7.4,127.7"/>
			<path class="st1" d="M11,132.8c-0.2-0.4-0.4-0.9-0.4-1.3l-0.2,0c0,0,0.1-0.1,0.1-0.1c0.5-0.4,1-0.7,1.6-0.9c0.1,0,0.6,0,1.1,0
				l0,0c-0.3-0.2-0.5-0.6-0.5-1c0-0.1,0-0.1,0-0.2c0.1-0.5,0.4-0.9,0.8-1.3c0.2-0.2,0.4-0.4,0.6-0.5c0.3-0.2,0.7-0.4,1.1-0.6l0,0
				c0.9,1,1.8,1.8,2.8,2.6l0.1,0c-0.2,0.7-0.3,1.4-0.2,2.2c0,0.6,0,1.3,0.1,1.9v0c-0.9,0.8-2.4,0.6-3.9,0.5
				c-1.1-0.1-2.1-0.5-2.9-1.2C11.1,132.9,11,132.8,11,132.8"/>
			<path class="st1" d="M5.7,127.3c0,0-0.3,0-0.3-0.1c0.2-0.3,0.4-0.6,0.6-0.9c0-0.1,0.2-0.5,0.3-0.8c0.1-0.3,0.2-0.7,0.3-1
				c0.2-0.4,0.3-0.7,0.4-1.1l0.2-3.4c0.1-1.2,0.5-2.4,1.2-3.4l0-0.1c0.3,0.1,0.6,0.2,1,0.2l0,0.1c-0.9,0.9-1.4,2.2-1.3,3.5
				c0,2.1,0.6,4-0.3,5.6l-0.3,0.7l-0.4,1.1c0,0-0.4-0.2-0.6-0.2C6.2,127.6,5.8,127.5,5.7,127.3"/>
			<path class="st1" d="M4.3,126.3C3.7,126,4.7,125,4.7,125l0.8-1.2c0.4-0.5,0.6-1.1,0.8-1.7c0.2-0.8,0.3-1.7,0.3-2.6
				c0.3-2.5,1.3-3.2,1.3-3.2c0.2,0.1,0.3,0.1,0.5,0.2v0l0,0.1c-0.7,1-1.1,2.1-1.2,3.4l-0.2,3.4c-0.1,0.4-0.2,0.8-0.4,1.1
				c-0.1,0.3-0.2,0.7-0.4,1l-0.8,1.7c0,0-0.4-0.3-0.6-0.4C4.6,126.7,4.3,126.3,4.3,126.3"/>
			<path class="st3" d="M9.5,116.8c-0.9,0.8-1.4,2-1.3,3.2c0,2.1,0.3,5-0.5,6.6c-0.1,0.1-0.1,0.2-0.2,0.3c0,0-0.7,0.8-0.1,0.8
				c0.6,0,0.9,0,1.2,0.3c0.1,0.1,0.2,0.2,0.4,0.3c0.4,0.1,0.8,0.1,1.2,0 M11.3,117c-0.6,0.7-0.9,1.6-0.9,2.5c0,1.5,0.4,3.8,0.4,4.3
				c-0.1,0.6-0.2,1.3-0.3,1.9c-0.2,0.9-0.2,1.8,0.1,2.7 M7.8,114.5L7.8,114.5c-0.1,0.1-0.6,0.6,0.2,1.9 M15.6,114.3
				c0,0-0.1,0-0.2,0.1c-0.3,0.2-0.9,0.7-1.6,1.1c-0.9,0.6-1.8-0.2-2.2-0.6c-0.5-0.3-1.5,0-2.4,0.1c-0.5,0-1-0.2-1.3-0.6
				c-0.2-0.2-0.4-0.5-0.5-0.5c-0.2-0.2-0.4-1.1-0.2-1.3c0.2-0.2,0.9-1,0.9-1c1.1-1.9,2.2-2.2,2.2-2.2 M20.2,122.4
				c0,0.1-0.1,0.4-0.2,0.5c0,0.2-0.1,0.4-0.1,0.6c0,0.2,0,0.4-0.1,0.4c-0.1,0.1-0.3,0.2-0.4,0.2c-0.2,0-0.4,0-0.6-0.1
				c-0.2-0.1-0.3-0.3-0.5-0.5c0,0-0.1-0.1-0.1-0.1c-0.2-0.2-0.2-0.5-0.2-0.8c0.1-0.3,0.2-0.7,0.4-1c0-0.1-0.5-1.5-0.5-1.5
				s-0.8-1.1-1-1.4c-0.4-0.6-0.7-1.2-0.9-1.9c-0.1-0.5-0.2-1-0.3-1.5c-0.1-0.3-0.1-0.6-0.1-1c0-0.1,0-0.3,0-0.5
				c0.1-0.8,0.1-1.6,0.1-2.4c0-0.1,0-0.2,0-0.3c0.1-0.6,0.2-1.2,0.4-1.8c0.4-0.8,0.8-1.6,1.3-2.4 M20.2,122.4L20.2,122.4
				 M15.3,114.4l-1.3-0.4c-0.2-0.1-1.5-0.6-1.8-0.6c-0.4-0.1-0.9-0.2-1.2-0.5c-0.4-0.4-0.7-0.8-0.9-1.4c0-0.2,0.1-1.2,0.2-2
				c0-0.2,0.1-0.3,0.1-0.5c0.2-0.7,0.8-0.9,1.2-1.2c0.4-0.2,0.9-1.2,1.4-1.5c0.9-0.3,1.8-0.6,2.7-0.7c0.9-0.1,1.9-0.1,2.8,0
				c0,0,0.1,0,0.2,0c0.5,0,1,0.1,1.5,0.4c0.2,0.1,0.3,0.2,0.5,0.3c0.3,0.2,0.6,0.6,0.7,0.9c0.3,0.6,0.3,1.2,0.1,1.8
				c-0.1,0.3-0.3,0.7-0.5,1c-0.2,0.3-0.5,0.6-0.8,0.8c-0.3,0.2-0.6,0.2-0.8,0.7c-0.2,0.8-0.5,1.5-0.9,2.1c0,0-0.1,0,0,0.2
				c0,0.1,0.1,0.2,0.1,0.3c0.4,0.8,0.7,1.7,0.8,2.7c0,0.9,0.1,1.8,0.4,2.6c0.2,0.7,0.7,1.6,0.9,1.6c0.2,0,0.5,0.1,0.7,0.3
				c0.2,0.2,0.5,0.3,0.7,0.4c0.1,0,0.3,0.1,0.3,0.2c0,0.1,0,0.1-0.2,0.2c-0.3,0.1-0.6,0.1-0.9,0c-0.1-0.1-0.2-0.1-0.3-0.1
				c-0.1,0-0.2,0.1-0.3,0.2c-0.1,0-0.3,0.1-0.4,0.2v0c0,0,0,0,0,0 M15.7,111.2c-0.7,0.3-1.5-0.5-2.2-1.4c-0.7-0.9-0.2-1.7,0.8-2.8
				c0.9-1,3.7-1.3,4.3-1.3 M18.5,113.9l1.1-0.6l0.9-0.5c0,0,1.3-0.5,2.1-0.8c0.2-0.1,0.3-0.1,0.5-0.3c0-0.3,0.1-0.5,0-0.8
				 M23.4,109.6c0.1,0.5-0.1,1-0.3,1.4c-0.1,0.1-0.2,0.2-0.3,0.2l-0.8,0.5 M26.3,109.3c0,0,0.3,0.4,0.4-0.1c0.2-0.6,0.4-1.2,0.6-1.8
				c0-0.1,0.1-0.2,0.2-0.3 M21.1,110.1l2.2-0.6l0.1,0.1l0.9,0.5c0.2,0.1,0.5,0.2,0.8,0.3c0.2,0,0.2-0.1,0.2-0.2
				c0-0.1,0.1-0.2,0.2-0.3c0.1,0,0.2-0.2,0.2-0.2c0.1,0,0.2,0,0.4-0.1c0.1-0.1,0.2-0.1,0.2-0.2v0 M20.1,105.9
				c-0.1-0.3,0.2-0.7,0.4-0.8c0,0,0.3-0.1,0.3-0.1c0,0,0,0,0-0.1c0-0.5,1.5-0.7,1.5-0.7c0-1,2.3-0.6,2.3-0.6c0.8,0,1.6,0.2,2.2,0.6
				c0.9-0.2,1.3,0.9,1.3,0.9c0.8,0.2,0.5,1.4,0.4,1.5c0,0.1,0,0.3-0.4,0.4c-0.2,0-0.3,0-0.5-0.1c-0.3-0.1-0.6-0.2-0.9-0.4l-0.6-0.5
				c0,0,0,0.5-0.2,0.7c-0.2,0.2-0.3,0.2-0.4,0.2c-0.1,0-0.4,0.3-0.6,0.4c-0.3,0.2-0.6,0.4-1,0.5c-0.4,0.1-0.8,0.1-1.1,0.1
				c-0.2-0.1-0.8,0.1-0.9-0.1c-0.1-0.2-0.3-0.4-0.5-0.5 M25.4,109.3l0.3,0.3 M19.7,113.3c-0.1,0.3-0.1,0.6,0,0.9
				c0.3,0.8,1,1.3,1.9,1.4c0.1,0,1.4,0.1,1.4,0.1 M22.8,112.1c0,0,0.9,0.6,1,0.9 M18.2,123.5l-1.4,0.6c0,0-1.5,0.4-1.8,0.4
				c-0.4,0-1.8,0.3-1.7,1.2c0,0.8-0.1,1.1,0.2,1.3c0.2,0.1,0.4,0.3,0.6,0.4 M15.1,126.9c-0.4,0.2-0.7,0.4-1.1,0.6
				c-0.2,0.1-0.4,0.3-0.6,0.5c-0.4,0.4-0.6,0.8-0.8,1.3c-0.1,0.5,0.1,0.9,0.5,1.1 M12.5,129.3c-0.4-0.3-0.7-0.5-1.1-0.7
				c-0.1,0-0.3,0-0.6-0.1c-0.3,0-0.5-0.1-0.8-0.1c-0.3,0-1.4,0.6-1.5,1.3c-0.1,0.6-0.6,2.3,1,2.3c0.3-0.2,0.6-0.4,0.9-0.6
				c0,0,0.1-0.1,0.1-0.1c0.5-0.4,1-0.7,1.6-0.9c0.1,0,0.6,0,1.1,0c0.2,0,0.5,0.1,0.7,0.2c0.2,0.3,0.3,1.1,0.4,1.2
				c0.1,0.1,1,0.8,1,0.8 M20.8,136.1L20.8,136.1l0.7,0.9l0.4,0.6c0,0,0.2,0.2,0.3,0.2c0.1,0,0.3-0.1,0.2-0.4
				c-0.1-0.2-0.3-0.7-0.3-0.7c-0.2-0.3-0.3-0.6-0.6-0.8l0.6,0.2l0.9,0.5c0.1,0,0.1,0,0.2-0.1c0-0.1,0-0.2-0.1-0.3
				c-0.1-0.1-0.7-0.9-0.7-0.9c-0.1-0.1-0.3-0.2-0.4-0.3c-0.1-0.1-0.1-0.1-0.2-0.2c-0.1-0.2-0.3-0.3-0.4-0.5
				c-0.3-0.2-0.5-0.3-0.8-0.5c-0.2,0-0.7-0.1-0.7-0.4c0.2-0.6,0.4-1.2,0.6-1.7l0.4-0.9c0,0,0.1-0.1,0.2-0.3c0.2-0.4,0.4-0.9,0.5-1.4
				c0,0,1.1-0.1,1.1-0.7c0-0.5,0.4-1.3-2.7-2.4c-0.6,0.4-1,0.9-1.4,1.5c-0.3,0.5-0.5,1.1-0.6,1.7c-0.2,0.7-0.3,1.4-0.2,2.2
				c0,0.6,0,1.3,0.1,1.9 M20.3,136.8L20.3,136.8l0.7,1.4c0,0,0.2,0.1,0.3,0c0.1-0.1,0.1-0.1,0.1-0.2c0-0.1-0.2-0.5-0.2-0.5l-0.2-0.6
				l-0.1-0.4l-0.1-0.4 M17.9,133.6c0,0.8,0.2,1.5,0.6,2.1c0,0,0.5,0.4,0.5,0.4c0.2,0.1,0.4,0.3,0.5,0.4c0,0.1,0.2,0.4,0.1,0.5
				c-0.1,0.1-0.3,0.2-0.3,0.2c0,0-0.1,0.3,0.1,0.4c0,0,0.1,0.1,0.2,0c0.1-0.1,0.2-0.1,0.3-0.2c0.1,0,0.5-0.2,0.5-0.4
				c0-0.2,0-0.3,0-0.3 M14.7,126.5c0,0,0.1,0.1,0.3,0.4c0.9,1,1.8,1.8,2.8,2.6 M10.5,131.5c0,0.5,0.2,0.9,0.4,1.3
				c0,0,0.1,0.1,0.1,0.1c0.8,0.7,1.8,1.2,2.9,1.2c1.5,0.1,3,0.3,3.9-0.5v0l0,0 M11.1,132.9c-0.2,1,0,1.9,0.7,2.7c0,0,0,0,0.1,0.1
				c1.1,1.1,2.3,2,3.6,2.8c1.4,0.7,4.4,1.9,4.7,2c0.1,0,0.2,0.1,0.4,0.1c0.7,0.2,1.3,0.5,1.9,0.9 M11.7,135.7
				c-0.2,0.1-0.2,0.3-0.3,0.5c0,0.5-0.1,1-0.3,1.4c-0.3,0.6-0.6,1.3-0.7,2c0.2,0.5,0.4,1,0.7,1.5c0.1,0.1,0.1,0.2,0.2,0.3
				c0.1,0,0.2,0,0.4,0c0.1,0,0.2,0,0.3,0c0.1,0,0.3-0.1,0.3-0.2s0-0.2,0.1-0.2c0.1,0,0.4-0.4,0.3-0.5c-0.1,0-0.3-0.1-0.4-0.2
				c-0.1,0-0.3,0-0.3-0.2c-0.1-0.1-0.1-0.2-0.1-0.4c0.1-0.1,0.2-0.3,0.3-0.4c0.5-0.4,1-0.7,1.6-0.9c0.3,0,0.6,0.2,0.9,0.3
				c0.7,0.7,1.5,1.3,2.3,1.8c0.8,0.5,1.7,0.9,2.7,1.2c0.9,0.1,1.8,0.3,2.7,0.5c0.6,0.2,1.8,0.4,2.3-0.2c0.5-0.6,0.8-0.7,0.8-1
				c0.1-0.7,0.1-1.4-0.1-2c-0.2-0.3-0.4-0.6-0.6-0.9 M22.3,121.9c0.8,0.2,1.6,0.5,2.3,0.9c0,0,0,0,0,0c0.1,0.1,0.1,0.1,0.2,0.2
				 M22.6,131.4c0.3,0.6,0.5,1.2,0.7,1.8c0,0.3,0.4,1.4,0.7,2.3c0.2,0.6,0.3,1.1,0.4,1.1c0.3,0.4,0.4,0.9,0.3,1.4c0,0,0,0.1,0,0.1
				c0,0.1-0.1,0.3-0.1,0.4c-0.5,1.1-0.6,2.2-3.3,2.1l-0.7-0.1 M25,129.9c1.5-0.2,1.8-2.1,1.9-2.7c0-0.2-0.1-0.4-0.1-0.6
				c0,0-0.1-0.6-0.3-1.1c-0.5-0.9-1-1.7-1.6-2.5 M24.7,122.8c0,0-0.2-1,0.2-1.2l0.1-0.1c0.1-0.1,0.2-0.2,0.3-0.3
				c0.1-0.1,0.4-0.5,0.6-0.5c0.2-0.1,0.4-0.2,0.5-0.3c0.2-0.4,0.7-0.6,1.1-0.6c0.7,0,1.4,0.1,2.1,0.3c0.3,0.3,0.7,0.5,1.1,0.7
				c0.1,0,0.2,0,0.3,0c0.3,0,0.5,0.2,0.6,0.5c0.2,0.2,0.2,0.5,0.1,0.7c0,0,0,0,0,0c0,0,0.6,0.4,0.7,0.7c0.1,0.3,0.2,0.9-0.4,1.1
				c0,0-0.7,0.1-0.8,0.1c0,0,0-0.3-0.2-0.3c-0.2-0.1-0.3,0-0.5,0.1c-0.3,0.2-0.6,0.3-0.8,0.5c-0.2,0-0.4,0.1-0.5,0.2
				c0,0.1-0.1,0.3-0.7,0.6c0,0-2.1,0.5-2.1,0.5 M27,125.6c0.1,0.2,0.3,0.5,0.4,0.7c0.4,0.4,1,0.5,1.5,0.4c0.2-0.1,0.3-0.2,0.4-0.2
				c0.1,0,0.3-0.2,0.4-0.2c0.2,0,0.3-0.4,0.3-0.4s0.5,0.1,0.5-0.2c0-0.3,0-1.1,0-1.1c0.3-0.2,0.5-0.5,0.5-0.8 M29.5,126.3l-0.2-0.2
				 M30.1,125.9c0,0-0.4-0.1-0.4-0.2 M21.2,130.8c0.4,0.4,0.9,0.6,1.4,0.5v0c0.9-0.1,1.8-0.6,2.4-1.4c0.5-0.9,0.8-2.1-0.6-3.9
				 M31.8,115.6c-0.1,0.4,0.1,0.8,0.4,1c0.1,0.1,0.1,0.3,0.1,0.3c0.2,0,0.3,0,0.5-0.1c0.2-0.1,0.4-0.2,0.5-0.4
				c0.4-0.3,0.1-0.6,0.2-0.9c0-0.2,0-0.4-0.2-0.6c0.1,0,0.1,0,0.1-0.1c0,0,0,0,0,0c0-0.1-0.3-0.4-0.4-0.4c0,0,0-0.2,0-0.3
				c-0.1-0.2-0.1-0.4-0.2-0.6c0,0-0.1-0.3-0.1-0.4c0-0.2-0.2-0.4-0.4-0.5c0-0.2-0.3-0.4-0.3-0.4c0.1-0.5-0.4-0.4-0.5-0.6
				c-0.1-0.2-0.5-0.4-0.5-0.4c-0.2-0.2-0.4-0.3-0.7-0.4c-0.3,0-0.6,0.1-0.9,0.3c-0.2,0-0.4,0-0.6,0.1c-0.5-0.1-0.9,0.2-1.1,0.6
				c-0.2,0.2-0.4,0.3-0.5,0.6c-0.3,0.7-0.5,1.5-0.6,2.2c-0.1,0.6,0,0.5-0.1,0.6c-0.1,0.3-1.3,1.3-0.7,1.7c0.6,0.4,0.8,0.5,0.9,0.8
				c0.1,0.3,1.8,0.5,2.1,0.3c0.4-0.2,0.6-1.4,0.6-1.4c0-0.3,0-0.6-0.1-0.9c0-0.1-0.1-0.3-0.1-0.4c-0.2-0.4-0.2-0.7-0.3-1.1
				c0-0.3-0.1-0.6-0.3-0.8c-0.2-0.2-0.4-0.5-0.3-0.8c0.1-0.4,0.3-0.8,0.6-1.1c0.5-0.2,1-0.3,1.5-0.2c0,0,0.3,0.3,0.4,0.4
				c0.1,0,0.3,0.2,0.5,0.4c0.1,0.1,0.2,0.3,0.3,0.4 M32.2,113.2c0,0.1,0.2,1,0.1,1.1c0,0.1,0.3,0.7,0.1,0.9
				c-0.2,0.2-0.5,0.3-0.7,0.4c-0.8,0-1.7-0.1-2.4-0.3 M26,117.1c0,0-2.5,1.4-2,5.4 M30.8,118l0.1,2.8 M26.1,134.9
				c0,0-0.2-3.4-0.1-3.9 M29.2,107.8c0,0,0-0.9,0.2-1.1c0.2-0.2,0.5-0.4,0.8-0.5c0.1,0,0.3,0,0.4,0c0.4,0.2,1.7,0.8,2,1.5
				c0.2,0.3,0.2,0.6,0,0.9c-0.1,0.1-0.2,0.2-0.3,0.2c-0.2,0.1-0.5,0.2-0.8,0.2 M34.9,103.1L34.9,103.1 M30.3,106.1
				c-0.3-0.6-0.1-1.3,0.3-1.7c0.8-0.9,1-1,1.3-1.1c0.3,0,0.9-0.1,0.9-0.1c0.6-0.4,1.4-0.5,2.1-0.1 M32.9,113.4c0,0,0.5-1.2,0.6-1.3
				c0.6-1.2,0.6-2.6,0-3.7c-0.1-0.4-0.7,0.3-0.7,0.3l0,0 M38.4,110.4c0,0-0.2,0.7-0.3,0.7c-0.1,0-0.4-0.5-0.4-0.5l0.3-1.1l0.1-1.4
				l0-0.1l1.1-1.7c0-0.3-0.1-0.6-0.2-0.9c-0.2-0.2-0.4-0.4-0.5-0.7c0-0.2-0.1-0.7-0.1-0.7s-0.8,0.6-0.9,0.7c-0.3,0-0.6,0-0.9,0
				c-0.2,0-0.4,0.1-0.6,0.3c-0.1,0.2-0.4,0.7-0.5,0.8c-0.1,0.3-0.2,0.6-0.2,1c0,0.1-0.1,0.3-0.1,0.4c-0.1,0.1-0.1,0.2-0.2,0.3
				c-0.1,0.2,0,0.4,0.1,0.7c0,0.3,0,0.6-0.1,1c0,0.1-0.3,0.1-0.4,0.1c-0.1,0-0.3,0.1-0.4,0.2c0,0,0.1-0.4,0.1-0.5
				c-0.1-0.3-0.2-0.6-0.3-0.9c-0.1-0.7-0.2-1.3-0.3-2c0.1-0.5,0.2-0.9,0.4-1.4c0.1-0.4,0.2-0.8,0.4-1.2c0.1-0.1,0.2-0.3,0.3-0.4v0
				c0.2-0.2,0.4-0.5,0.7-0.7c0.4-0.2,0.8-0.3,1.2-0.4c0.7-0.1,1.3,0.1,1.9,0.5c0,0,0.7,0,1,0.5c0.3,0.5,0.5,0.9,0.6,1.5
				c0,0.2-0.2,0.5-0.2,0.6c0,0.3,0,0.7-0.1,1c0,0,0,0,0,0.1c-0.1,0.1-0.1,0.3-0.1,0.4c0,0.2,0.2,0.7,0.1,0.8
				c-0.1,0.1-0.3,0.2-0.3,0.3c0,0.1,0,0.6-0.2,0.7c-0.1,0.1-0.2,0.2-0.2,0.4c0,0.1,0.1,0.7-0.1,1c-0.1,0.1-0.1,0.2-0.2,0.2v0
				c-0.1,0-0.2,0-0.2,0.1L38.4,110.4z M35.2,107.2c0,0,0.4,1.3,1,1.5c0.7,0,1.3-0.2,1.9-0.6 M43.6,110.5c0,0,0-0.1,0-0.1
				 M39.9,106.3c1.4,0.6,2.5,1.5,3.3,2.8c0.2,0.4,0.4,0.8,0.5,1.2c0,0.1,0,0.2,0,0.2v0 M44.6,111.5c-0.3-0.4-0.6-0.7-1-1
				c-0.4-0.3-0.8-0.5-1.3-0.7 M38.9,110.2c0,0-0.3,1.4,1.5,2.7 M35.5,116.9l-1.9-0.9 M34.7,135.9c0.4-0.5,0.5-1.1,0.3-1.6
				c-0.3-1.2-0.2-1.5-0.1-1.9c0.1-0.2,1.6-2,2.6-4c0.1-0.2,0.2-0.4,0.3-0.6c0.4-0.7,0.6-1.6,0.6-2.4l0.9-2l0,0 M32.7,140.3l-0.3,1.5
				l0.6-1.6l1.1-2.8l1.3,3.6l-0.8-5.1l-0.1-0.5c-0.3,0-0.6,0.2-0.8,0.5c-0.3,0.5-0.5,1.1-0.6,1.7c-0.1,0.2-0.1,0.4-0.3,0.6l0,0
				c-0.3,0-0.3-0.4-0.3-0.4l-0.1-2c-0.1-0.1-0.2-0.2-0.2-0.3c-0.1-0.4-0.2-0.8-0.1-1.2c0.1-0.6,0.4-1.1,0.7-1.6
				c0.1-0.3,0.4-1.1,0.6-1.8c0.3-0.9,0.5-1.8,0.5-1.8c0.1-0.9,0.3-1.7,0.5-2.5c0.2-0.7,0.5-1.2,1-1.7c0.2-0.3,0.3-0.6,0.4-0.9
				 M33,138.1l-0.3,2.1 M36.3,119.9c-0.1,0.2-0.2,0.4-0.3,0.6c-0.2,0.1-0.9,1.1-0.8,1.7c0.1,0.6,0.5,1.8,0.5,1.8l0.3,0l2.9-0.3
				c0.1,0,0.3-0.1,0.4-0.1c0.3-0.1,0.6-0.3,0.8-0.5c0.4-0.4,1.4-2.1,1.4-2.1 M28,141.4l4.5,1.5l8.4-2.4l-4.8-1l-3.1,0.7l-0.3,0.1
				L28,141.4L28,141.4 M28,141.4l0,1.2l4.6,1.5l8.3-2.5v-1.2 M32.5,142.9l0,1.2 M35.7,117.8c-0.1-0.1-0.2-0.3-0.2-0.4
				c0.1-0.3-0.2-0.7,0-0.8c0.1-0.1,0.2-0.5,0.3-0.7c0.1-0.1,0.2-0.3,0.4-0.3c0.6-0.1,0.3-0.6,0.7-0.8c0.4-0.1,0.8-0.4,0.9-0.4
				c0.3-0.1,0.6-0.1,0.8-0.2c0.1,0,0.2,0,0.4-0.1c0.2,0,0.4,0,0.5,0c0.2,0.1,0.4,0.2,0.6,0.3c0.1,0.1,0.3,0.1,0.4,0.1
				c0.2,0,0.9,0.3,1,0.3c0.1,0,0.6,0,0.5,0.2c0,0.2-0.1,0.3-0.1,0.3c0.1,0,0.4,0.2,0.3,0.3c0,0.1-0.2,0.3-0.1,0.4
				c0,0.1,0.3,0.5,0.3,0.6c0,0.1,0.1,0.3,0,0.4c-0.1,0.1-0.2,0.2-0.1,0.2c0.1,0.1,0,0.2-0.1,0.3c-0.1,0.1-0.2,0.3-0.3,0.4
				c-0.1,0.2-0.3,0.4-0.4,0.5c-0.1,0.1-0.4,0-0.5,0.2c0,0.1-0.5,0.3-0.6,0.3c-0.1,0-0.7,0.4-0.8,0.1c-0.1-0.2-0.1-0.5,0-0.8
				c0-0.1,0.2-0.3,0.3-0.4c0-0.1,0-0.2,0-0.3c-0.1-0.1-0.3-0.3-0.1-0.5c0.3-0.4,0.6-0.9,0.8-1.3c0.1-0.2,0.1-0.4,0-0.5
				c-0.2-0.2-0.5-0.3-0.7-0.4c-0.3-0.1-0.7-0.2-1-0.2c-0.3,0-0.6,0-0.8,0.1c-0.2,0.1-0.7,0.3-0.8,0.4c-0.1,0.1-0.5,0.4-0.5,0.4
				l-0.5,0.4c-0.5,0.5-0.7,1.2-0.7,1.9c0,0.3,0,0.7,0.1,1c0.1,0.4,0.2,0.7,0.4,1c0.1,0.1,0.9,0.7,0.9,0.7s0.3,0.1,0.4,0.1
				c0.2,0,0.3,0.1,0.4,0.3c0.1,0.2,0.3,1,0.8,0.9l0.3-0.3c0,0,0.5,0.2,0.6,0.2c0.1,0,0.9,0.4,1.8-0.9c0.1-0.1,0.2-0.3,0.3-0.5
				c0,0,0.3-0.8,0.7-1.5c0.1,0,0.4-0.2,0.5-0.3c0.7-0.4,1.2-1,1.4-1.7c0,0,0-0.2,0-0.5 M43.4,119.9c0,0.3-0.4,1.8-0.5,2.1
				c-0.1,0.3,0,0.7,0.1,1c0.2,0.6,0.3,1.2,0.3,1.8c-0.1,0.7-0.2,1.5-0.4,2.2c0,0.1-0.1,0.2-0.1,0.3l-0.1,0.3l-0.6,1.2
				c0,0-0.9,1.8-1.1,2.2c-0.6,1.2-0.6,2.6-0.1,3.9l0.3,1.1c0.5,1.7,0.7,1.8,1.3,1.9 M44.1,132c-0.1,1.2-0.3,2.4-0.6,3.6
				c-0.3,0.6-0.5,1.2-0.6,1.8c0,0.5-0.2,0.9-0.3,1.4c-0.1,0.2-0.2,0.4-0.3,0.7c0,0.1-0.1,0.3,0,0.5c0,0.4,0.1,0.8,0.4,0.8
				c0.3,0,0.5,0,0.8-0.1c0.2,0.1,0.4,0.1,0.7,0.2c0.2,0,0.4,0,0.7,0c0.2-0.1,0.5-0.2,0.6-0.3c0.1-0.1,0.6-0.5,0.5-0.7
				c-0.2-0.4-0.4-0.8-0.7-1.2c0,0,0-0.1-0.1-0.3c-0.2-0.5-0.2-1.1,0-1.7c0.3-0.6,3.7-5.3,3.5-8.7 M50.6,127.4
				c-0.7-0.1-1.4,0.1-2,0.4l0,0c-0.2,0.1-0.3,0.3-0.5,0.5c-1.3,1.3-2.6,2.5-4.1,3.6c-0.5,0.4-0.9,0.7-1.1,0.9
				c-0.2,0.2-0.4,0.5-0.5,0.7c0.5-5.2,2.5-10.1,5.7-14.1 M39.2,113.9c0.3-0.4,0.7-0.7,1.2-0.9c0.2-0.1,3.7-1.9,6.9-1.3 M44.1,115.6
				c0-0.1,0.9-3,2.8-3.8c0.5-0.2,1-0.2,1.4-0.1c0.4,0.2,1.5-0.3,2.7,0.7l1-0.3c1.2-0.2,2.3,0.6,2.5,1.8c0,0.1,0,0.2,0,0.3
				c0,0.9-1.3,2.1-1.3,2.1l-1.3,1c-0.4,0.6-1.7,1.3-2.1,1.6c-0.6,0.4-1.2,0.5-1.9,0.4c-2-0.4-3.9-2.9-3.9-2.9 M46.4,136.8
				c0.6,0.7,1.4,1.3,2.3,1.7 M39.6,121.6l0.3-0.2 M33,124.7c0,0-0.1-1.5-0.1-2.1c0-0.3,0.4-2,0.7-3.4 M34.2,123.9c0,0-2.5,1-1.5,3.3
				 M32.9,127.2c-0.4,0.6-0.4,0.5-0.5,0.7c-0.1,0.4-0.2,0.7-0.2,1.1c0,0.1,0,0.4-0.1,0.4c-0.1,0-0.4,0.3-0.5,0.2
				c0-0.1-0.3-0.5-0.5-0.5c-0.1,0-0.4-0.1-0.3,0.1c0.1,0.2-0.6,0.1-0.1,0.5l0.4,0.4c0.2,0.2,0.4,0.3,0.7,0.4c0.3,0.1,0.7,0,0.9-0.3
				 M32.9,127.2L32.9,127.2 M34.5,126.5c-0.4-0.2-0.8-0.2-1.1,0.2c-0.4,0.4-0.5,0.5-0.5,0.5v0l0,0l0,0l0,0l0,0 M32.8,128.8
				c0,0.2-0.2,0.8,0.2,0.8c0.2,0,0.4-0.1,0.4-0.3c0-0.2,0.1-0.5,0.2-0.7 M32.9,129.7c0,0,0,0.3-0.1,0.5c0,0.2-0.1,0.4-0.1,0.6
				c-0.1,0.2-0.2,0.5-0.2,0.8c0,0,0.2,0.5,0.5,0.2l0.3-0.4l0.3-0.5 M36.3,108c0.1,0.1,0.3,0.2,0.5,0.2 M36.6,107.6
				c0,0,0,0.1,0.3,0.1 M31.4,114.2c0.3-0.1,0.5-0.2,0.7-0.3 M29.6,113c0,0,0.5-0.7,0.8-0.5 M30.1,112.7L30.1,112.7 M29.9,124.9
				l-0.2,0.1 M26.2,107.9l-0.1,0.2 M36.3,106.4l0,0.1 M38.1,107l0,0.2 M39,120.3l0.1,0.2 M38.5,120.4l1.2-0.3 M49.1,119.5l-1.1,4.3
				 M50,119c-7-1.9-2.4-6.5-1.7-7.1 M25.8,107.6l0.7,0.5 M35.9,106.1c0.3,0.2,0.6,0.2,0.9,0.3 M37.8,106.9c0.3,0.2,0.6,0.2,0.9,0.3
				 M30.2,125c0,0-0.5-0.1-0.6-0.3 M24.3,113.2l0.3,0c0,0,0.7,0.1,0.8,0.1c0.1,0,0.8,0.1,0.8,0.1c0.1,0.2-0.3,0.3-0.3,0.3l-0.7,0.1
				l0.2,0.4c0.2,0.4-0.3,0.6-0.3,0.6c0.1,0.7-0.3,0.9-0.3,0.9c-0.6,0.3-1.3,0.2-1.8-0.2c-0.1-0.1-0.2-0.1-0.3-0.2
				c-0.5-0.2-0.3-0.6-0.4-1.1c0-0.4,0.1-0.7,0.3-1c0.2-0.2,0.4-0.3,0.7-0.4l0.5,0.1L24.3,113.2L24.3,113.2c0,0,0.2,0.3,0.1,0.4
				c-0.1,0.1-0.5,0.2-0.6,0.2l-0.2-0.1 M33.1,106.9l0.4,1.7 M52.3,138.5c0,0-2.7-0.5-2.8-4.8 M24.7,133.5c0,0,2.5,2.6,3.3,2.7
				 M29.3,129.8c-0.1,1.3-0.2,2.3-0.2,2.3c-0.2,1.5-0.6,2.9-1.2,4.2c0.7,0,1.3-0.1,1.9-0.3c0.9-0.3,1.5-1,2.4-0.5 M38,127.9
				c1.1-0.2,2.1-0.4,3.2-0.5h0c1-0.1,1.6-0.1,1.6-0.1 M37.9,128c0,0,0,2.8,0,3.1c0.1,0.5,0,1-0.2,1.5c-0.3,0.4-0.5,0.8-0.5,1.3
				c0,0.3,0,0.6,0,0.9c-0.1,0.1-0.3,1-0.3,1s-0.1,0.7,0.6,0.8c0.6,0.1,1.3,0.1,1.9-0.1c0.4-0.2,0.6-0.5,0.5-0.8
				c-0.1-0.2-0.4-0.4-0.5-0.6c-0.2-0.3-0.3-0.6-0.3-0.9c0.1-0.2,0.1-0.3,0.1-0.5c0-0.3,0-0.7,0.1-1c0.2-0.2,1.3-2,1.3-2
				c0.5-1,0.7-2.1,0.7-3.2 M31,108.7c0,0-0.1-0.2-0.2-0.4c-0.1-0.1-0.1-0.2-0.1-0.2c0-0.1,0-0.2,0-0.3c0.1-0.1,0.3,0,0.3,0
				c0.1,0.1,0.2,0.2,0.3,0.3c0.2,0.1,0.2,0,0.3,0.7c0,0.1,0,0.2,0,0.3c0,0.3-0.5,0.3-0.9,0.6c-0.4,0.2-0.8,0.2-1.2,0
				c0,0-0.9-0.9-1-0.9c-0.1-0.1-0.2-0.1-0.2,0c-0.1,0.1,0,0.1-0.4,0.1c-0.2,0-0.5-0.1-0.6-0.3c0-0.1,0.4-0.3,0.4-0.3
				c0.3-0.2,0.7-0.3,1.1-0.4c0.1,0,0.2,0,0.3,0c0.3-0.1,0.7,0,1,0.2l0.5,0.3 M7.1,127.7c0,0-1.5-0.3-1.5-0.5c0-0.1,0-0.1,0-0.2
				c0.2-0.1,0.3-0.3,0.4-0.5c0-0.1,0-0.1,0.2-0.4c0.2-0.5,0.6-1.2,0.6-1.2c0.3-0.8,0.3-0.9,0.3-0.9l0.3-4.3c0-1.1,0.4-2.2,1.2-3
				 M16,116.8c-1.5,0.2-3.1,0.3-4.6,0.2c-0.6,0-1.2-0.1-1.8-0.2c-0.3-0.1-0.7-0.1-1-0.2c-0.2,0-0.3-0.1-0.5-0.2c0,0-1,0.4-1.3,2.9
				c0,1.2-0.2,2.4-0.5,3.5c-0.5,1-1.2,1.9-2,2.7c-0.2,0.2-0.2,0.6,0,0.8c0,0,0,0,0,0l1,0.7 M54.1,115.7c0.7,2,1.1,4.1,1.3,6.3
				c0.3,4-0.1,8-1.2,11.9c-0.4,1.8,0.3,4.3,1.1,4.5c0,0-3,0.3-4.3,0.3c-0.5,0-0.6,0-1.2,0c-1.5,0-3-0.1-4.4-0.3"/>
			<path class="st4" d="M42.9,132.9c0,0-1.4,1.1,0.7,1.7"/>
			<path class="st3" d="M53.9,120.2c0.2,1.3,0.2,2.7,0,4c-0.4,2.1,0.4,8.3,0.2,9.6"/>
			<line class="st3" x1="49.5" y1="114.7" x2="50.7" y2="113.6"/>
			<path class="st3" d="M32.9,123c0,0,1.1-3.3,1.7-3.5 M23.8,124.2c0,0,2.5,1,2.9,2.2 M16.5,118.2c-0.1,0.9,0,1.8,0.2,2.7
				c0.3,1.6,0.8,3,0.8,3 M29.3,117.9c0,0,2.4,0.5,2.9-1.2 M26.5,128.7c-0.1,0.8-0.3,1.6-0.6,2.4c0,0-0.2,0.6-0.5,1.2
				c-0.2,0.7-1.8,2-1.8,2 M20,126.3c0.5-0.5,1.3-0.8,2-0.7c0,0,0.6,0,1.1,0 M42.2,114.8c0.9-0.2,1.8,0.3,2,1.2c0,0.2,0.1,0.3,0,0.5
				 M31.7,113.6c0.2-0.1,0.4-0.3,0.5-0.5c-0.3-0.2-0.7-0.4-1-0.6c-0.4-0.2,0-0.5,0-0.5 M42.2,118.7c-0.1,0.5-0.2,1.1-0.4,1.6
				 M42.6,119.8l2.7-0.1c0.3,0,0.7-0.1,1-0.3 M47.9,131.8c1.6,1.8,3.3,3.6,3.3,3.6 M44.5,122.8c0,0.8,0,1.5,0.1,2.3"/>
			<line class="st3" x1="27" y1="126" x2="26.7" y2="126.2"/>
			<path class="st5" d="M159.3,140.3c0.8,0.9,1.9,1.4,3.2,1.4c2.1,0,3.5-1.3,3.5-2.9c-0.1-1.1-0.8-2.1-1.9-2.6v0
				c0.9-0.5,1.5-1.4,1.6-2.4c-0.1-1.6-1.4-2.9-3-2.8c-0.1,0-0.1,0-0.2,0c-1.1,0.1-2.1,0.5-2.8,1.4c-0.1,0.1-0.1,0.3,0,0.4
				c0,0,0,0,0,0l0.6,0.5c0.1,0.1,0.3,0.1,0.4,0c0,0,0,0,0,0c0.4-0.5,1.1-0.9,1.8-0.9c0.9,0,1.7,0.7,1.8,1.6c0,0,0,0,0,0.1
				c0,0.9-0.7,1.6-2.2,1.6h-0.9c-0.2,0-0.3,0.1-0.3,0.3v0.7c0,0.2,0.1,0.3,0.2,0.3c0,0,0,0,0.1,0h0.9c1.6,0,2.4,0.9,2.4,1.8
				c-0.1,1-0.9,1.7-1.9,1.7c0,0,0,0-0.1,0c-0.8,0-1.5-0.4-2.1-1c-0.1-0.1-0.3-0.2-0.4-0.1c0,0,0,0,0,0l-0.6,0.6
				C159.2,140,159.2,140.2,159.3,140.3 M154.7,140.3c-1.7,0-2.2-1.8-2.1-3c0.4-0.7,1.2-1.2,2.1-1.2c1.2,0,2.1,1,2,2.2
				C156.7,139.3,155.8,140.2,154.7,140.3 M151.1,137.3c0,2.4,1.2,4.3,3.6,4.3c1.9,0,3.4-1.6,3.4-3.5c0.1-1.8-1.3-3.3-3-3.3
				c-0.1,0-0.1,0-0.2,0c-0.7,0-1.4,0.2-2,0.6c0.5-1.9,3-3.2,3.7-3.4c0.3-0.1,0.4-0.3,0.3-0.4l-0.3-0.6c0-0.2-0.2-0.2-0.3-0.2
				c0,0,0,0,0,0C154.7,131.2,151.1,133,151.1,137.3 M144,138.7c0.1-1.1,1-1.9,2.1-1.8c1,0.1,1.8,0.8,1.8,1.8c0,1-0.9,1.7-1.9,1.7
				c0,0-0.1,0-0.1,0C144.9,140.5,144.1,139.7,144,138.7C144,138.7,144,138.7,144,138.7 M145.9,135.4c-1.2-0.2-1.7-0.8-1.7-1.6
				c0-0.9,0.7-1.6,1.6-1.6c0,0,0,0,0.1,0c0.9-0.1,1.7,0.6,1.8,1.5c0,0,0,0.1,0,0.1C147.7,134.6,147.1,135.2,145.9,135.4
				 M142.4,138.7c0,1.7,1.4,3,3.5,3c2.2,0,3.6-1.3,3.6-3c-0.1-1.1-0.8-2.1-1.9-2.6v-0.1c0.9-0.4,1.5-1.4,1.6-2.4
				c0-1.7-1.4-2.8-3.3-2.8c-1.8,0-3.3,1.1-3.3,2.8c0.1,1,0.7,1.9,1.6,2.4v0C143.2,136.6,142.5,137.6,142.4,138.7 M135,141.5h5.3
				c0.2,0,0.3-0.1,0.3-0.3c0,0,0,0,0,0v-0.7c0-0.2-0.1-0.3-0.3-0.3c0,0,0,0,0,0h-1.7v-8.9c0-0.2-0.1-0.3-0.3-0.3h-0.8l-2.3,2.1
				c-0.1,0.1-0.1,0.2,0,0.3l0.2,0.5c0,0.1,0.2,0.2,0.3,0.1c0,0,0,0,0,0l1.3-0.7v6.9H135c-0.2,0-0.3,0.1-0.3,0.3c0,0,0,0,0,0v0.7
				C134.7,141.4,134.8,141.5,135,141.5C135,141.5,135,141.5,135,141.5 M121,136.1c0-2.2,1.8-4,4-4c2.2,0,4,1.8,4,4s-1.8,4-4,4
				c0,0,0,0,0,0C122.8,140.1,121,138.3,121,136.1 M119.5,136.1c0,3.1,2.5,5.5,5.5,5.5c3.1,0,5.5-2.5,5.5-5.5c0-3-2.5-5.5-5.5-5.5
				C122,130.6,119.5,133,119.5,136.1C119.5,136.1,119.5,136.1,119.5,136.1 M108.3,141.2c0,0.2,0.1,0.3,0.3,0.3h1
				c0.2,0,0.3-0.1,0.3-0.3v-7.5h0l6.7,7.9h0.4c0.2,0,0.3-0.1,0.3-0.3V131c0-0.2-0.1-0.3-0.3-0.3h-1c-0.2,0-0.3,0.1-0.3,0.3v7.3h0
				l-6.7-7.7h-0.4c-0.2,0-0.3,0.1-0.3,0.3L108.3,141.2z M99.8,137.8l1.9-4.2h0.1l1.9,4.2H99.8z M97,141.5h1c0.2,0,0.3-0.1,0.4-0.2
				c0.3-0.7,0.6-1.4,0.9-2.1h5l1,2.1c0.1,0.1,0.2,0.2,0.4,0.2h1c0.1,0,0.3-0.1,0.3-0.2c0-0.1,0-0.1,0-0.2l-4.7-10.3
				c-0.1-0.1-0.2-0.2-0.3-0.2h-0.2c-0.1,0-0.2,0.1-0.3,0.2l-4.7,10.3c-0.1,0.1,0,0.3,0.1,0.4C96.9,141.5,96.9,141.5,97,141.5
				 M89.7,141.2c0,0.2,0.1,0.3,0.3,0.3c0,0,0,0,0,0h5.5c0.2,0,0.3-0.1,0.3-0.3v-0.8c0-0.2-0.1-0.3-0.3-0.3h-4.2v-9
				c0-0.2-0.1-0.3-0.3-0.3h-1c-0.2,0-0.3,0.1-0.3,0.3c0,0,0,0,0,0L89.7,141.2z M85.1,141.2c0,0.2,0.1,0.3,0.3,0.3h1
				c0.2,0,0.3-0.1,0.3-0.3V131c0-0.2-0.1-0.3-0.3-0.3h-1c-0.2,0-0.3,0.1-0.3,0.3V141.2z M71,141.1c0,0.1,0,0.3,0.2,0.3
				c0,0,0.1,0,0.1,0h1c0.1,0,0.2-0.1,0.3-0.2l1.1-6.9h0.1l2.8,7.1c0,0.1,0.1,0.2,0.3,0.2h0.3c0.1,0,0.2-0.1,0.3-0.2l2.8-7.1h0
				l1.1,6.9c0,0.1,0.2,0.2,0.3,0.2h1c0.1,0,0.3-0.1,0.3-0.2c0,0,0-0.1,0-0.1L81,130.8c0-0.1-0.1-0.2-0.3-0.2h-0.2
				c-0.1,0-0.2,0.1-0.3,0.2l-3.2,7.9H77l-3.2-7.9c-0.1-0.1-0.2-0.2-0.3-0.2h-0.2c-0.1,0-0.2,0.1-0.3,0.2L71,141.1z"/>
			<path class="st5" d="M200.5,115.8c0-2.8,2.2-5,5-5.1c2.8,0,5,2.2,5.1,5c0,2.8-2.2,5-5,5.1c0,0,0,0,0,0
				C202.7,120.8,200.5,118.5,200.5,115.8 M197.6,115.8c0,4.4,3.6,7.9,7.9,7.9c4.4,0,7.9-3.6,7.9-7.9c0-4.4-3.6-7.9-7.9-7.9
				c-4.3,0-7.9,3.5-7.9,7.8C197.6,115.7,197.6,115.7,197.6,115.8 M182.3,115.8c0,4.3,3.5,7.9,7.9,7.9c0,0,0,0,0.1,0
				c2,0,3.9-0.7,5.3-2.1c0.2-0.2,0.2-0.4,0-0.6c0,0,0,0,0,0l-1.4-1.4c-0.2-0.1-0.4-0.1-0.5,0c-0.9,0.8-2.1,1.2-3.4,1.3
				c-2.7,0-4.9-2.3-4.9-5c0,0,0,0,0,0c-0.1-2.7,2.1-5,4.8-5.1c0,0,0,0,0.1,0c1.2,0,2.4,0.5,3.4,1.3c0.1,0.2,0.3,0.2,0.5,0.1
				c0,0,0,0,0.1-0.1l1.3-1.4c0.2-0.2,0.2-0.4,0-0.6c0,0,0,0,0,0c-1.4-1.4-3.3-2.1-5.3-2C185.9,107.8,182.3,111.4,182.3,115.8
				C182.3,115.7,182.3,115.8,182.3,115.8 M176.6,123c0,0.2,0.2,0.4,0.4,0.4h2c0.2,0,0.4-0.2,0.4-0.4v-14.5c0-0.2-0.2-0.4-0.4-0.4h-2
				c-0.2,0-0.4,0.2-0.4,0.4V123z M159.8,123c0,0.2,0.2,0.4,0.4,0.4h2c0.2,0,0.4-0.2,0.4-0.4c0,0,0,0,0,0v-9.4h0l9.2,10.1h0.5
				c0.2,0,0.4-0.2,0.4-0.4v-14.8c0-0.2-0.2-0.4-0.4-0.4h-2c-0.2,0-0.4,0.2-0.4,0.4c0,0,0,0,0,0v9.1h0l-9.1-9.7h-0.5
				c-0.2,0-0.4,0.2-0.4,0.4V123z M143.6,115.8c0,4.3,3.5,7.9,7.9,7.9c0,0,0,0,0.1,0c2,0,3.9-0.7,5.3-2.1c0.2-0.2,0.2-0.4,0-0.6
				c0,0,0,0,0,0l-1.4-1.4c-0.2-0.1-0.4-0.1-0.5,0c-0.9,0.8-2.1,1.2-3.4,1.3c-2.7,0-4.9-2.3-4.9-5c0,0,0,0,0,0
				c-0.1-2.7,2.1-5,4.8-5.1c0,0,0,0,0.1,0c1.2,0,2.4,0.5,3.4,1.3c0.1,0.2,0.3,0.2,0.5,0.1c0,0,0,0,0.1-0.1l1.3-1.4
				c0.2-0.2,0.2-0.4,0-0.6c0,0,0,0,0,0c-1.4-1.4-3.3-2.1-5.3-2C147.2,107.8,143.6,111.4,143.6,115.8
				C143.6,115.7,143.6,115.8,143.6,115.8 M131.6,123c0,0.2,0.2,0.4,0.4,0.4c0,0,0,0,0,0h8.9c0.2,0,0.4-0.2,0.4-0.4c0,0,0,0,0,0v-1.8
				c0-0.2-0.2-0.4-0.4-0.4c0,0,0,0,0,0h-6.5V117h5.4c0.2,0,0.4-0.2,0.4-0.4c0,0,0,0,0,0v-1.8c0-0.2-0.2-0.4-0.4-0.4h-5.4v-3.6h6.5
				c0.2,0,0.4-0.2,0.4-0.4c0,0,0,0,0,0v-1.8c0-0.2-0.2-0.4-0.4-0.4c0,0,0,0,0,0H132c-0.2,0-0.4,0.2-0.4,0.4c0,0,0,0,0,0V123z
				 M122.5,123c0,0.2,0.2,0.4,0.4,0.4h2c0.2,0,0.4-0.2,0.4-0.4v-12.3h3.4c0.2,0,0.4-0.2,0.4-0.4c0,0,0,0,0,0v-1.8
				c0-0.2-0.2-0.4-0.4-0.4c0,0,0,0,0,0h-9.6c-0.2,0-0.4,0.2-0.4,0.4c0,0,0,0,0,0v1.8c0,0.2,0.2,0.4,0.4,0.4c0,0,0,0,0,0h3.4V123z
				 M113,123c0,0.2,0.2,0.4,0.4,0.4h2c0.2,0,0.4-0.2,0.4-0.4v-14.5c0-0.2-0.2-0.4-0.4-0.4h-2c-0.2,0-0.4,0.2-0.4,0.4L113,123z
				 M101.3,123c0,0.2,0.2,0.4,0.4,0.4c0,0,0,0,0,0h8c0.2,0,0.4-0.2,0.4-0.4c0,0,0,0,0,0v-1.8c0-0.2-0.2-0.4-0.4-0.4c0,0,0,0,0,0
				h-5.6v-12.3c0-0.2-0.2-0.4-0.4-0.4h-2c-0.2,0-0.4,0.2-0.4,0.4c0,0,0,0,0,0L101.3,123z M86.1,115.8c0-2.8,2.2-5,5-5.1
				c2.8,0,5,2.2,5.1,5c0,2.8-2.2,5-5,5.1c0,0,0,0,0,0C88.3,120.8,86.1,118.5,86.1,115.8 M83.2,115.8c0,4.4,3.6,7.9,7.9,7.9
				c4.4,0,7.9-3.6,7.9-7.9c0-4.4-3.6-7.9-7.9-7.9c-4.3,0-7.9,3.5-7.9,7.8C83.2,115.7,83.2,115.7,83.2,115.8 M73.9,115.2v-4.4h2.5
				c1.2,0,2.2,0.9,2.3,2.1c0,0,0,0,0,0c0,1.3-1,2.3-2.2,2.3c0,0,0,0,0,0H73.9z M71,123c0,0.2,0.2,0.4,0.4,0.4c0,0,0,0,0,0h2
				c0.2,0,0.4-0.2,0.4-0.4v-5.2h2.7c2.7,0,4.9-2.2,4.9-4.9c0-2.7-2.2-4.9-4.9-4.9h-5.2c-0.2,0-0.4,0.2-0.4,0.4c0,0,0,0,0,0L71,123z"
				/>
		</g>
	</g>
</g>
<g id="Layer_2_2_">
	<g id="Layer_1-2_1_">
		<g id="Page-1">
			<g id="Logo_DensityDesign">
				<rect id="Rectangle" x="132.9" y="8.1" class="st5" width="10.8" height="1.8"/>
				<polygon id="Path" class="st5" points="97.1,19.6 97.1,0 103.5,0 103.5,2.8 100.2,2.8 100.2,8.2 102.4,8.2 102.4,10.8 
					100.2,10.8 100.2,16.6 103.5,16.6 103.5,19.6 				"/>
				<polygon id="Path-2" class="st5" points="122.3,19.6 119,9.7 118,6.5 118,19.6 116,19.6 116,0 117.9,0 121,10 121.8,13.2 
					121.8,0 123.8,0 123.8,19.6 				"/>
				<polygon id="Path-3" class="st5" points="98.6,48.8 98.6,29.3 101.7,29.3 101.7,48.8 				"/>
				<path id="Path-4" class="st5" d="M82.5,77.2l-0.3-1c-0.4,0.8-1.2,1.3-2.1,1.3c-2.1,0-3.4-1.5-3.4-3.8V61.2
					c0-2.1,1.6-3.8,3.7-3.8c0,0,0.1,0,0.1,0c2.2,0,3.7,1.7,3.7,3.8v3.6h-2.8v-3.7c0-0.4-0.3-0.8-0.7-0.8c0,0-0.1,0-0.1,0
					c-0.4,0-0.8,0.3-0.8,0.7c0,0,0,0.1,0,0.1v12.8c0,0.4,0.3,0.8,0.7,0.9c0,0,0.1,0,0.1,0c0.4,0,0.8-0.3,0.8-0.7c0,0,0-0.1,0-0.1v-4
					h-0.8v-2.4h3.7v9.6H82.5z"/>
				<polygon id="Path-5" class="st5" points="101.5,77.2 99.3,68.4 98.6,65.7 98.6,77.2 96,77.2 96,57.7 98.9,57.7 100.8,66.4 
					101.4,69.2 101.4,57.7 104,57.7 104,77.2 				"/>
				<polygon id="Path-6" class="st5" points="121,31.2 121,48.8 118.9,48.8 118.9,31.2 116.3,31.2 116.3,29.2 123.5,29.2 
					123.5,31.2 				"/>
				<polygon id="Path-7" class="st5" points="139.3,41.1 139.3,48.8 137.2,48.8 137.2,41.1 134.2,29.2 136.3,29.2 138.4,38.4 
					140.5,29.2 142.5,29.2 				"/>
				<rect id="Rectangle-2" x="114.5" y="65.9" class="st5" width="10.8" height="2.3"/>
				<rect id="Rectangle-3" x="118.8" y="61.6" class="st5" width="2.3" height="10.8"/>
				<path id="Shape" class="st5" d="M79,19.6h-2.3V0H79c5.3,0,5.7,2.1,5.7,9.8C84.8,17.5,84.4,19.6,79,19.6z M79.7,16.7
					c2,0,2.2-0.5,2.1-6.9c0-6.4-0.1-6.9-2.1-6.9V16.7z"/>
				<path id="Path-8" class="st5" d="M81.6,38c-1.2-2.2-1.9-3-1.9-5.2c0-0.7,0.4-1,0.9-1c0.5,0,0.8,0.4,0.8,1v1.5L84,34v-0.9
					c0-2.6-1.4-4.1-3.4-4.1c-2.6,0-3.9,2-3.9,4.4c0,2.3,1.6,5,2.7,6.8c1.1,2,1.8,3.3,1.8,5.1c0,0.7-0.3,1.2-1,1.2
					c-0.7,0-1-0.5-1-1.2v-1.6l-2.6,0.3V45c0,2.6,1.4,4.1,3.8,4.1c1.9,0,3.8-1.3,3.8-4.3C84.2,42.5,82.9,40.2,81.6,38z"/>
			</g>
		</g>
	</g>
</g>
</svg>
