<svg width="134" height="119" viewBox="0 0 134 119" fill="none" xmlns="http://www.w3.org/2000/svg">
<path d="M52.4786 23.8389L56.9707 13.0354L65.4686 21.7319L73.4882 12.6727L78.5623 23.2748L89.2976 16.9057L90.4807 28.3635L102.928 25.2765L100.09 36.4802L112.962 36.9419L106.36 46.8443L118.472 50.8593L108.776 58.4205L118.89 65.596L107.01 70.1157L114.156 79.6977L101.314 80.7454L104.829 91.8381L92.2229 89.3131L91.714 100.797L80.6103 94.8995L76.1182 105.703L67.6365 97.0474L59.6465 106.051L54.5265 95.4636L43.7912 101.833L42.6081 90.3749L30.1771 93.5029L33.0445 82.2438L20.1265 81.7964L26.7292 71.8941L14.6168 67.8791L24.3587 60.3035L14.2152 53.1834L26.0791 48.6227L18.9329 39.0407L31.7748 37.993L28.3062 26.8859L40.8822 29.4662L41.3748 17.9415L52.4786 23.8389Z" fill="#FF0009"/>
<path d="M33.1888 68.6352L33.9936 70.9281L42.619 68.3616L41.8202 66.0857L33.1888 68.6352ZM48.0507 60.5713L51.3652 70.0146L54.3862 69.1222L50.0105 56.6558L47.5592 57.3799C46.4878 59.1585 44.6638 60.747 42.63 61.6289L43.5301 64.1935C45.5229 63.2487 47.2398 61.8981 48.0507 60.5713ZM65.0554 66.1957C70.0788 64.7119 72.659 62.0753 71.6635 59.2389C70.7216 56.5554 67.2843 55.8274 63.0204 57.0869C60.7763 57.7497 59.5192 58.4022 57.488 60.0519L56.9937 57.1237L68.577 53.7023L67.7722 51.4094L53.9966 55.4784L54.6669 61.785L57.9852 62.7168C59.883 61.0128 61.431 60.0494 63.3817 59.4732C66.2991 58.6115 68.4782 58.8489 68.8955 60.0378C69.3366 61.2946 67.5107 62.7149 64.4035 63.6328C60.8819 64.673 58.1523 64.7669 55.6735 64.0557L56.4654 66.746C59.156 67.3009 61.879 67.1339 65.0554 66.1957ZM78.916 57.2279C82.3513 56.2132 84.0357 54.0099 83.1117 51.3773C82.1817 48.7278 79.4183 47.857 75.983 48.8717C72.5305 49.8915 70.8574 52.0727 71.7874 54.7223C72.7114 57.3548 75.4635 58.2477 78.916 57.2279ZM81.8897 60.9233L81.9653 60.976L84.5374 60.2162L89.9934 45.1457L89.9177 45.0931L87.3456 45.8528L81.8897 60.9233ZM78.2722 55.3936C76.2007 56.0055 74.5627 55.627 74.0142 54.0645C73.4658 52.5019 74.5553 51.3178 76.6268 50.706C78.6984 50.0941 80.3191 50.4776 80.8675 52.0402C81.416 53.6027 80.3437 54.7817 78.2722 55.3936ZM96.0196 57.0496C99.4549 56.0349 101.139 53.8315 100.215 51.199C99.2853 48.5495 96.5219 47.6786 93.0866 48.6934C89.6341 49.7132 87.961 51.8944 88.891 54.5439C89.815 57.1765 92.5671 58.0694 96.0196 57.0496ZM95.3758 55.2153C93.3043 55.8272 91.6663 55.4487 91.1179 53.8862C90.5694 52.3236 91.6589 51.1395 93.7305 50.5276C95.802 49.9158 97.4227 50.2993 97.9711 51.8619C98.5196 53.4244 97.4473 54.6034 95.3758 55.2153Z" fill="#FDEF4B"/>
</svg>
